<svg width="387" height="489" viewBox="0 0 387 489" fill="none" xmlns="http://www.w3.org/2000/svg">
<path d="M0.129035 -5.94475e-06L0.129029 75L0.129028 81.447L44.441 81.447L68.129 39.33L43.629 -2.14186e-06L0.129035 -5.94475e-06ZM40.201 74.28L0.129029 75L0.0960455 4.96398L39.414 5.00799L59.785 39.423L40.201 74.28Z" fill="black"/>
<path d="M74.169 39.287L50.482 81.413L75.12 123L123.441 122.447L147.129 80.33L122.5 38.756L74.169 39.287ZM119.201 115.28L79.197 115.731L58.826 81.325L78.423 46.468L118.414 46.008L138.785 80.423L119.201 115.28Z" fill="black"/>
<path d="M0.129028 443.5L45.522 443.159L69.218 401.033L44.58 359.459L0.129036 360L0.129035 367L0.129028 443.5ZM0.129035 367L40.49 366.715L60.874 401.121L41.268 435.978L1.28204 436.429L0.129029 436.429L0.129035 367Z" fill="black"/>
<path d="M76.169 405.287L52.482 447.413L75.129 484L81.197 481.731L125.441 488.447L140.785 446.423L147.129 444L124.5 404.756L76.169 405.287ZM125.441 488.447L81.197 481.731L60.826 447.325L80.423 412.468L120.414 412.008L140.785 446.423L125.441 488.447Z" fill="black"/>
<path d="M76.066 396.252L124.386 395.711L148.091 353.585L139.762 353.681L119.369 319.278L123.455 312.002L75.128 312.551L51.426 354.68L76.066 396.252ZM119.369 319.278L139.762 353.681L120.141 388.542L80.16 388.991L59.759 354.582L79.377 319.733L119.369 319.278Z" fill="black"/>
<path d="M234.201 31.694L282.522 31.159L301.129 3.05176e-05L293.129 2.98182e-05L223.629 2.37423e-05L214.629 2.29555e-05L234.201 31.694ZM223.629 2.37423e-05L293.129 2.98182e-05L278.268 23.978L238.282 24.429L223.629 2.37423e-05Z" fill="black"/>
<path d="M356.629 2.79386e-05L297.826 35.325L289.482 35.413L314.12 77L362.441 76.447L386.129 34.33L365.629 2.87254e-05L356.629 2.79386e-05ZM358.201 69.28L318.197 69.731L297.826 35.325L356.629 2.79386e-05L357.129 1.00003L377.785 34.423L358.201 69.28Z" fill="black"/>
<path d="M155.201 170.694L203.522 170.159L227.218 128.033L202.58 86.459L198.49 93.715L158.504 94.175L155.201 86.459L130.562 129.121L155.201 170.694ZM158.504 94.175L198.49 93.715L218.874 128.121L199.268 162.978L159.282 163.429L138.902 129.032L158.504 94.175Z" fill="black"/>
<path d="M234.169 132.287L218.826 174.325L239.197 208.731L283.441 215.447L307.129 173.33L282.5 131.756L234.169 132.287ZM279.201 208.28L283.441 215.447L239.197 208.731L218.826 174.325L234.169 132.287L238.423 139.468L278.414 139.008L298.785 173.423L279.201 208.28Z" fill="black"/>
<path d="M282.389 122.709L306.081 80.591L281.452 39L233.121 39.544L209.434 81.67L234.068 123.262L282.389 122.709ZM237.38 46.72L277.37 46.261L297.75 80.684L278.149 115.532L238.149 115.997L217.778 81.582L237.38 46.72Z" fill="black"/>
<path d="M151.629 0.00801944L131.482 35.413L156.12 77L204.441 76.447L228.129 34.33L207.629 0.00802433L151.629 0.00801944ZM200.201 69.28L160.197 69.731L139.826 35.325L159.371 0.00802011L199.414 0.00802361L219.785 34.423L200.201 69.28Z" fill="black"/>
<path d="M76.201 31.694L124.522 31.159L141.129 0L132.629 -7.43094e-07L65.629 -6.60042e-06L58.129 -7.25609e-06L76.201 31.694ZM65.629 -6.60042e-06L132.629 -7.43094e-07L120.268 23.978L80.282 24.429L65.629 -6.60042e-06Z" fill="black"/>
<path d="M0.129028 171L44.522 170.159L68.218 128.033L43.58 86.459L0.129036 87.5L0.129028 171ZM0.129035 94L39.49 93.715L59.874 128.121L40.268 162.978L0.282044 163.429L0.129032 129L0.129035 94Z" fill="black"/>
<path d="M75.169 132.287L51.482 174.413L76.12 216L120.201 215.5L139.785 173.423L146.629 171L123.5 131.756L75.169 132.287ZM120.201 208.28L80.197 208.731L59.826 174.325L79.423 139.468L119.414 139.008L139.785 173.423L120.201 215.5L120.201 208.28Z" fill="black"/>
<path d="M43.389 260.709L67.081 218.591L44.129 181L0.128998 254L0.128998 260.5L43.389 260.709ZM0.128998 254L44.129 181L38.37 184.261L58.75 218.684L39.149 253.532L0.128998 254Z" fill="black"/>
<path d="M0.129005 270L0.129002 310L0 354L44.245 353.447L67.932 311.33L43.303 269.756L0.129005 270ZM40.004 346.28L6.35476e-07 346.731L0.129002 310L0.129005 277.008L39.217 277.008L59.588 311.423L40.004 346.28Z" fill="black"/>
</svg>
