<svg width="197" height="36" viewBox="0 0 197 36" fill="none" xmlns="http://www.w3.org/2000/svg">
<path d="M0.88 1.4H21.04C24.4 1.4 26.832 2.168 28.336 3.704C29.872 5.208 30.64 7.64 30.64 11V15.8C30.64 19.16 29.872 21.608 28.336 23.144C26.832 24.648 24.4 25.4 21.04 25.4H9.52V35H0.88V1.4ZM22 11C22 9.08 21.04 8.12 19.12 8.12H9.52V18.68H19.12C21.04 18.68 22 17.72 22 15.8V11ZM49.1181 16.52C47.1021 16.52 45.0221 17 42.8781 17.96V35H34.4781V9.56H41.9181L42.3981 12.68C45.1501 10.28 48.0301 9.08 51.0381 9.08H53.1981V16.52H49.1181ZM64.7144 28.76C66.4104 28.76 68.3304 28.44 70.4744 27.8V24.92H63.5144C63.0344 24.92 62.6344 25.08 62.3144 25.4C61.9944 25.72 61.8344 26.12 61.8344 26.6V27.08C61.8344 27.56 61.9944 27.96 62.3144 28.28C62.6344 28.6 63.0344 28.76 63.5144 28.76H64.7144ZM55.8344 10.04C61.6904 9.4 66.9704 9.08 71.6744 9.08C73.8504 9.08 75.5944 9.736 76.9064 11.048C78.2184 12.36 78.8744 14.104 78.8744 16.28V35H71.4344L70.9544 32.6C69.4504 33.592 67.8984 34.328 66.2984 34.808C64.7304 35.256 63.4024 35.48 62.3144 35.48H60.6344C58.4584 35.48 56.7144 34.824 55.4024 33.512C54.0904 32.2 53.4344 30.456 53.4344 28.28V26.12C53.4344 23.944 54.0904 22.2 55.4024 20.888C56.7144 19.576 58.4584 18.92 60.6344 18.92H70.4744V17C70.4744 16.52 70.3144 16.12 69.9944 15.8C69.6744 15.48 69.2744 15.32 68.7944 15.32C66.7144 15.32 64.4104 15.416 61.8824 15.608C59.3864 15.8 57.3704 15.944 55.8344 16.04V10.04ZM99.7525 9.56H108.633L99.0325 35H89.4325L79.8325 9.56H88.7125L94.2325 26.84L99.7525 9.56ZM121.116 10.52V35H112.716V17H109.116V10.52H121.116ZM112.716 0.919998H121.116V7.64H112.716V0.919998ZM143.931 35L143.451 32.6C141.947 33.592 140.395 34.328 138.795 34.808C137.227 35.256 135.899 35.48 134.811 35.48H132.651C130.475 35.48 128.731 34.824 127.419 33.512C126.107 32.2 125.451 30.456 125.451 28.28V17.24C125.451 14.84 126.123 12.968 127.467 11.624C128.843 10.248 130.731 9.56 133.131 9.56H142.971V1.4H151.371V35H143.931ZM137.211 28.52C138.907 28.52 140.827 28.2 142.971 27.56V16.04H135.771C134.491 16.04 133.851 16.68 133.851 17.96V26.84C133.851 27.32 134.011 27.72 134.331 28.04C134.651 28.36 135.051 28.52 135.531 28.52H137.211ZM169.126 35C166.982 35.32 164.934 35.48 162.982 35.48C161.062 35.48 159.446 34.824 158.134 33.512C156.822 32.2 156.166 30.456 156.166 28.28V1.4H164.566V27.08C164.566 27.56 164.726 27.96 165.046 28.28C165.366 28.6 165.766 28.76 166.246 28.76H169.126V35ZM182.558 28.76C184.254 28.76 186.174 28.44 188.318 27.8V24.92H181.358C180.878 24.92 180.478 25.08 180.158 25.4C179.838 25.72 179.678 26.12 179.678 26.6V27.08C179.678 27.56 179.838 27.96 180.158 28.28C180.478 28.6 180.878 28.76 181.358 28.76H182.558ZM173.678 10.04C179.534 9.4 184.814 9.08 189.518 9.08C191.694 9.08 193.438 9.736 194.75 11.048C196.062 12.36 196.718 14.104 196.718 16.28V35H189.278L188.798 32.6C187.294 33.592 185.742 34.328 184.142 34.808C182.574 35.256 181.246 35.48 180.158 35.48H178.478C176.302 35.48 174.558 34.824 173.246 33.512C171.934 32.2 171.278 30.456 171.278 28.28V26.12C171.278 23.944 171.934 22.2 173.246 20.888C174.558 19.576 176.302 18.92 178.478 18.92H188.318V17C188.318 16.52 188.158 16.12 187.838 15.8C187.518 15.48 187.118 15.32 186.638 15.32C184.558 15.32 182.254 15.416 179.726 15.608C177.23 15.8 175.214 15.944 173.678 16.04V10.04Z" fill="#BCBCBC"/>
</svg>
