<svg width="213" height="44" viewBox="0 0 213 44" fill="none" xmlns="http://www.w3.org/2000/svg">
<path d="M22.48 9.4H31.12V33.88C31.12 37.24 30.352 39.688 28.816 41.224C27.312 42.728 24.88 43.48 21.52 43.48H10.48C7.12 43.48 4.672 42.728 3.136 41.224C1.632 39.688 0.88 37.24 0.88 33.88V9.4H9.52V33.88C9.52 35.8 10.48 36.76 12.4 36.76H19.6C21.52 36.76 22.48 35.8 22.48 33.88V9.4ZM12.64 8.392L15.52 0.231998H24.16L18.88 8.392H12.64ZM51.04 24.52C49.024 24.52 46.944 25 44.8 25.96V43H36.4V17.56H43.84L44.32 20.68C47.072 18.28 49.952 17.08 52.96 17.08H55.12V24.52H51.04ZM83.4606 35.8C83.4606 38.2 82.7726 40.088 81.3966 41.464C80.0526 42.808 78.1806 43.48 75.7806 43.48H64.7406C62.3406 43.48 60.4526 42.808 59.0766 41.464C57.7326 40.088 57.0606 38.2 57.0606 35.8V24.76C57.0606 22.36 57.7326 20.488 59.0766 19.144C60.4526 17.768 62.3406 17.08 64.7406 17.08H75.7806C78.1806 17.08 80.0526 17.768 81.3966 19.144C82.7726 20.488 83.4606 22.36 83.4606 24.76V35.8ZM75.0606 25.48C75.0606 24.2 74.4206 23.56 73.1406 23.56H67.3806C66.1006 23.56 65.4606 24.2 65.4606 25.48V35.08C65.4606 36.36 66.1006 37 67.3806 37H73.1406C74.4206 37 75.0606 36.36 75.0606 35.08V25.48ZM104.346 17.56H113.226L103.626 43H94.0263L84.4262 17.56H93.3063L98.8263 34.84L104.346 17.56ZM124.521 23.08C123.241 23.08 122.601 23.72 122.601 25V27.64H130.761V25C130.761 23.72 130.121 23.08 128.841 23.08H124.521ZM138.201 42.52C132.025 43.16 126.425 43.48 121.401 43.48C119.225 43.48 117.481 42.824 116.169 41.512C114.857 40.2 114.201 38.456 114.201 36.28V24.76C114.201 22.36 114.873 20.488 116.217 19.144C117.593 17.768 119.481 17.08 121.881 17.08H131.481C133.881 17.08 135.753 17.768 137.097 19.144C138.473 20.488 139.161 22.36 139.161 24.76V33.64H122.601V35.56C122.601 36.04 122.761 36.44 123.081 36.76C123.401 37.08 123.801 37.24 124.281 37.24C127.449 37.24 132.089 37 138.201 36.52V42.52ZM157.623 24.04C155.927 24.04 154.007 24.36 151.863 25V43H143.463V17.56H150.903L151.383 19.96C152.887 18.968 154.423 18.248 155.991 17.8C157.591 17.32 158.935 17.08 160.023 17.08H162.183C164.359 17.08 166.103 17.736 167.415 19.048C168.727 20.36 169.383 22.104 169.383 24.28V43H160.983V25.72C160.983 25.24 160.823 24.84 160.503 24.52C160.183 24.2 159.783 24.04 159.303 24.04H157.623ZM153.543 7.384L156.663 11.224L159.783 7.384H165.783L160.023 15.544H153.303L147.543 7.384H153.543ZM212.568 19.96C212.568 22.68 211.416 25.032 209.112 27.016C208.408 27.624 207.64 28.232 206.808 28.84L196.488 36.28H212.568V43H186.648V33.88L203.928 21.4V19C203.928 17.08 202.968 16.12 201.048 16.12H187.608V9.4H202.968C206.328 9.4 208.76 10.168 210.264 11.704C211.8 13.208 212.568 15.64 212.568 19V19.96Z" fill="#BCBCBC"/>
</svg>
