<svg width="109" height="45" viewBox="0 0 109 45" fill="none" xmlns="http://www.w3.org/2000/svg">
<path d="M28.32 9.12L11.52 29.28H28.32V36H0.96V29.28L17.76 9.12H0.96V2.4H28.32V9.12ZM45.8569 17.04C44.1609 17.04 42.2409 17.36 40.0969 18V29.52H47.2969C48.5769 29.52 49.2169 28.88 49.2169 27.6V18.72C49.2169 18.24 49.0569 17.84 48.7369 17.52C48.4169 17.2 48.0169 17.04 47.5369 17.04H45.8569ZM40.0969 36V44.16H31.6969V10.56H39.1369L39.6169 12.96C41.1209 11.968 42.6569 11.248 44.2249 10.8C45.8249 10.32 47.1689 10.08 48.2569 10.08H50.4169C52.5929 10.08 54.3369 10.736 55.6489 12.048C56.9609 13.36 57.6169 15.104 57.6169 17.28V28.32C57.6169 30.72 56.9289 32.608 55.5529 33.984C54.2089 35.328 52.3369 36 49.9369 36H40.0969ZM71.7713 16.08C70.4913 16.08 69.8513 16.72 69.8513 18V20.64H78.0113V18C78.0113 16.72 77.3713 16.08 76.0913 16.08H71.7713ZM85.4513 35.52C79.2753 36.16 73.6753 36.48 68.6513 36.48C66.4753 36.48 64.7313 35.824 63.4193 34.512C62.1073 33.2 61.4513 31.456 61.4513 29.28V17.76C61.4513 15.36 62.1233 13.488 63.4673 12.144C64.8433 10.768 66.7313 10.08 69.1313 10.08H78.7313C81.1313 10.08 83.0033 10.768 84.3473 12.144C85.7233 13.488 86.4113 15.36 86.4113 17.76V26.64H69.8513V28.56C69.8513 29.04 70.0113 29.44 70.3313 29.76C70.6513 30.08 71.0513 30.24 71.5312 30.24C74.6993 30.24 79.3393 30 85.4513 29.52V35.52ZM70.8113 0.48L73.9313 4.32L77.0513 0.48H83.0513L77.2913 8.64H70.5713L64.8113 0.48H70.8113ZM108.473 36C105.369 36.32 102.329 36.48 99.3525 36.48C97.1765 36.48 95.4325 35.824 94.1205 34.512C92.8085 33.2 92.1525 31.456 92.1525 29.28V17.04H89.2725V10.56H92.1525L93.1125 4.8H100.553V10.56H106.553V17.04H100.553V28.08C100.553 28.56 100.713 28.96 101.033 29.28C101.353 29.6 101.753 29.76 102.233 29.76H108.473V36Z" fill="#BCBCBC"/>
</svg>
