<svg width="97" height="39" viewBox="0 0 97 39" fill="none" xmlns="http://www.w3.org/2000/svg">
<path d="M0.0340909 38V3.09091H7.41477V17.4943H22.3977V3.09091H29.7614V38H22.3977V23.5795H7.41477V38H0.0340909ZM35.7102 38V11.8182H42.75V16.3864H43.0227C43.5 14.7614 44.3011 13.5341 45.4261 12.7045C46.5511 11.8636 47.8466 11.4432 49.3125 11.4432C49.6761 11.4432 50.0682 11.4659 50.4886 11.5114C50.9091 11.5568 51.2784 11.6193 51.5966 11.6989V18.142C51.2557 18.0398 50.7841 17.9489 50.1818 17.8693C49.5795 17.7898 49.0284 17.75 48.5284 17.75C47.4602 17.75 46.5057 17.983 45.6648 18.4489C44.8352 18.9034 44.1761 19.5398 43.6875 20.358C43.2102 21.1761 42.9716 22.1193 42.9716 23.1875V38H35.7102ZM62.0668 38.4943C60.3963 38.4943 58.9077 38.2045 57.6009 37.625C56.294 37.0341 55.2599 36.1648 54.4986 35.017C53.7486 33.858 53.3736 32.4148 53.3736 30.6875C53.3736 29.233 53.6406 28.0114 54.1747 27.0227C54.7088 26.0341 55.4361 25.2386 56.3565 24.6364C57.277 24.0341 58.3224 23.5795 59.4929 23.2727C60.6747 22.9659 61.9134 22.75 63.2088 22.625C64.7315 22.4659 65.9588 22.3182 66.8906 22.1818C67.8224 22.0341 68.4986 21.8182 68.919 21.5341C69.3395 21.25 69.5497 20.8295 69.5497 20.2727V20.1705C69.5497 19.0909 69.2088 18.2557 68.527 17.6648C67.8565 17.0739 66.902 16.7784 65.6634 16.7784C64.3565 16.7784 63.3168 17.0682 62.544 17.6477C61.7713 18.2159 61.2599 18.9318 61.0099 19.7955L54.294 19.25C54.6349 17.6591 55.3054 16.2841 56.3054 15.125C57.3054 13.9545 58.5952 13.0568 60.1747 12.4318C61.7656 11.7955 63.6065 11.4773 65.6974 11.4773C67.152 11.4773 68.544 11.6477 69.8736 11.9886C71.2145 12.3295 72.402 12.858 73.4361 13.5739C74.4815 14.2898 75.3054 15.2102 75.9077 16.3352C76.5099 17.4489 76.8111 18.7841 76.8111 20.3409V38H69.9247V34.3693H69.7202C69.2997 35.1875 68.7372 35.9091 68.0327 36.5341C67.3281 37.1477 66.4815 37.6307 65.4929 37.983C64.5043 38.3239 63.3622 38.4943 62.0668 38.4943ZM64.1463 33.483C65.2145 33.483 66.1577 33.2727 66.9759 32.8523C67.794 32.4205 68.4361 31.8409 68.902 31.1136C69.3679 30.3864 69.6009 29.5625 69.6009 28.642V25.8636C69.3736 26.0114 69.0611 26.1477 68.6634 26.2727C68.277 26.3864 67.8395 26.4943 67.3509 26.5966C66.8622 26.6875 66.3736 26.7727 65.8849 26.8523C65.3963 26.9205 64.9531 26.983 64.5554 27.0398C63.7031 27.1648 62.9588 27.3636 62.3224 27.6364C61.6861 27.9091 61.1918 28.2784 60.8395 28.7443C60.4872 29.1989 60.3111 29.767 60.3111 30.4489C60.3111 31.4375 60.669 32.1932 61.3849 32.7159C62.1122 33.2273 63.0327 33.483 64.1463 33.483ZM63.3622 8.44318L66.9759 0.6875H73.6918L68.4929 8.44318H63.3622ZM96.3707 11.8182V17.2727H80.6037V11.8182H96.3707ZM84.1832 5.54545H91.4446V29.9545C91.4446 30.625 91.5469 31.1477 91.7514 31.5227C91.956 31.8864 92.2401 32.142 92.6037 32.2898C92.9787 32.4375 93.4105 32.5114 93.8991 32.5114C94.2401 32.5114 94.581 32.483 94.9219 32.4261C95.2628 32.358 95.5241 32.3068 95.706 32.2727L96.848 37.6761C96.4844 37.7898 95.973 37.9205 95.3139 38.0682C94.6548 38.2273 93.8537 38.3239 92.9105 38.358C91.1605 38.4261 89.6264 38.1932 88.3082 37.6591C87.0014 37.125 85.9844 36.2955 85.2571 35.1705C84.5298 34.0455 84.1719 32.625 84.1832 30.9091V5.54545Z" fill="black"/>
</svg>
