<svg width="184" height="38" viewBox="0 0 184 38" fill="none" xmlns="http://www.w3.org/2000/svg">
<path d="M0.0340909 37V2.09091H13.8068C16.4545 2.09091 18.7102 2.59659 20.5739 3.60795C22.4375 4.60795 23.858 6 24.8352 7.78409C25.8239 9.55682 26.3182 11.6023 26.3182 13.9205C26.3182 16.2386 25.8182 18.2841 24.8182 20.0568C23.8182 21.8295 22.3693 23.2102 20.4716 24.1989C18.5852 25.1875 16.3011 25.6818 13.6193 25.6818H4.84091V19.767H12.4261C13.8466 19.767 15.017 19.5227 15.9375 19.0341C16.8693 18.5341 17.5625 17.8466 18.017 16.9716C18.483 16.0852 18.7159 15.0682 18.7159 13.9205C18.7159 12.7614 18.483 11.75 18.017 10.8864C17.5625 10.0114 16.8693 9.33523 15.9375 8.85795C15.0057 8.36932 13.8239 8.125 12.392 8.125H7.41477V37H0.0340909ZM30.9759 37V10.8182H38.0156V15.3864H38.2884C38.7656 13.7614 39.5668 12.5341 40.6918 11.7045C41.8168 10.8636 43.1122 10.4432 44.5781 10.4432C44.9418 10.4432 45.3338 10.4659 45.7543 10.5114C46.1747 10.5568 46.544 10.6193 46.8622 10.6989V17.142C46.5213 17.0398 46.0497 16.9489 45.4474 16.8693C44.8452 16.7898 44.294 16.75 43.794 16.75C42.7259 16.75 41.7713 16.983 40.9304 17.4489C40.1009 17.9034 39.4418 18.5398 38.9531 19.358C38.4759 20.1761 38.2372 21.1193 38.2372 22.1875V37H30.9759ZM57.3324 37.4943C55.6619 37.4943 54.1733 37.2045 52.8665 36.625C51.5597 36.0341 50.5256 35.1648 49.7642 34.017C49.0142 32.858 48.6392 31.4148 48.6392 29.6875C48.6392 28.233 48.9063 27.0114 49.4403 26.0227C49.9744 25.0341 50.7017 24.2386 51.6222 23.6364C52.5426 23.0341 53.5881 22.5795 54.7585 22.2727C55.9403 21.9659 57.179 21.75 58.4744 21.625C59.9972 21.4659 61.2244 21.3182 62.1562 21.1818C63.0881 21.0341 63.7642 20.8182 64.1847 20.5341C64.6051 20.25 64.8153 19.8295 64.8153 19.2727V19.1705C64.8153 18.0909 64.4744 17.2557 63.7926 16.6648C63.1222 16.0739 62.1676 15.7784 60.929 15.7784C59.6222 15.7784 58.5824 16.0682 57.8097 16.6477C57.0369 17.2159 56.5256 17.9318 56.2756 18.7955L49.5597 18.25C49.9006 16.6591 50.571 15.2841 51.571 14.125C52.571 12.9545 53.8608 12.0568 55.4403 11.4318C57.0313 10.7955 58.8722 10.4773 60.9631 10.4773C62.4176 10.4773 63.8097 10.6477 65.1392 10.9886C66.4801 11.3295 67.6676 11.858 68.7017 12.5739C69.7472 13.2898 70.571 14.2102 71.1733 15.3352C71.7756 16.4489 72.0767 17.7841 72.0767 19.3409V37H65.1903V33.3693H64.9858C64.5653 34.1875 64.0028 34.9091 63.2983 35.5341C62.5938 36.1477 61.7472 36.6307 60.7585 36.983C59.7699 37.3239 58.6278 37.4943 57.3324 37.4943ZM59.4119 32.483C60.4801 32.483 61.4233 32.2727 62.2415 31.8523C63.0597 31.4205 63.7017 30.8409 64.1676 30.1136C64.6335 29.3864 64.8665 28.5625 64.8665 27.642V24.8636C64.6392 25.0114 64.3267 25.1477 63.929 25.2727C63.5426 25.3864 63.1051 25.4943 62.6165 25.5966C62.1278 25.6875 61.6392 25.7727 61.1506 25.8523C60.6619 25.9205 60.2188 25.983 59.821 26.0398C58.9688 26.1648 58.2244 26.3636 57.5881 26.6364C56.9517 26.9091 56.4574 27.2784 56.1051 27.7443C55.7528 28.1989 55.5767 28.767 55.5767 29.4489C55.5767 30.4375 55.9347 31.1932 56.6506 31.7159C57.3778 32.2273 58.2983 32.483 59.4119 32.483ZM101.182 10.8182L92.0284 37H83.8466L74.6932 10.8182H82.3636L87.8011 29.5511H88.0739L93.4943 10.8182H101.182ZM104.898 37V10.8182H112.159V37H104.898ZM108.545 7.44318C107.466 7.44318 106.54 7.08523 105.767 6.36932C105.006 5.64204 104.625 4.77273 104.625 3.76136C104.625 2.76136 105.006 1.90341 105.767 1.1875C106.54 0.460226 107.466 0.0965891 108.545 0.0965891C109.625 0.0965891 110.545 0.460226 111.307 1.1875C112.08 1.90341 112.466 2.76136 112.466 3.76136C112.466 4.77273 112.08 5.64204 111.307 6.36932C110.545 7.08523 109.625 7.44318 108.545 7.44318ZM127.624 37.4261C125.635 37.4261 123.834 36.9148 122.22 35.892C120.618 34.858 119.345 33.3409 118.402 31.3409C117.47 29.3295 117.004 26.8636 117.004 23.9432C117.004 20.9432 117.487 18.4489 118.453 16.4602C119.419 14.4602 120.703 12.9659 122.305 11.9773C123.919 10.9773 125.686 10.4773 127.607 10.4773C129.072 10.4773 130.294 10.7273 131.271 11.2273C132.26 11.7159 133.055 12.3295 133.658 13.0682C134.271 13.7955 134.737 14.5114 135.055 15.2159H135.277V2.09091H142.521V37H135.362V32.8068H135.055C134.714 33.5341 134.232 34.2557 133.607 34.9716C132.993 35.6761 132.192 36.2614 131.203 36.7273C130.226 37.1932 129.033 37.4261 127.624 37.4261ZM129.925 31.6477C131.095 31.6477 132.084 31.3295 132.891 30.6932C133.709 30.0455 134.334 29.142 134.766 27.983C135.209 26.8239 135.43 25.4659 135.43 23.9091C135.43 22.3523 135.214 21 134.783 19.8523C134.351 18.7045 133.726 17.8182 132.908 17.1932C132.089 16.5682 131.095 16.2557 129.925 16.2557C128.732 16.2557 127.726 16.5795 126.908 17.2273C126.089 17.875 125.47 18.7727 125.05 19.9205C124.629 21.0682 124.419 22.3977 124.419 23.9091C124.419 25.4318 124.629 26.7784 125.05 27.9489C125.482 29.108 126.101 30.017 126.908 30.6761C127.726 31.3239 128.732 31.6477 129.925 31.6477ZM155.753 2.09091V37H148.491V2.09091H155.753ZM169.036 37.4943C167.365 37.4943 165.876 37.2045 164.57 36.625C163.263 36.0341 162.229 35.1648 161.467 34.017C160.717 32.858 160.342 31.4148 160.342 29.6875C160.342 28.233 160.609 27.0114 161.143 26.0227C161.678 25.0341 162.405 24.2386 163.325 23.6364C164.246 23.0341 165.291 22.5795 166.462 22.2727C167.643 21.9659 168.882 21.75 170.178 21.625C171.7 21.4659 172.928 21.3182 173.859 21.1818C174.791 21.0341 175.467 20.8182 175.888 20.5341C176.308 20.25 176.518 19.8295 176.518 19.2727V19.1705C176.518 18.0909 176.178 17.2557 175.496 16.6648C174.825 16.0739 173.871 15.7784 172.632 15.7784C171.325 15.7784 170.286 16.0682 169.513 16.6477C168.74 17.2159 168.229 17.9318 167.979 18.7955L161.263 18.25C161.604 16.6591 162.274 15.2841 163.274 14.125C164.274 12.9545 165.564 12.0568 167.143 11.4318C168.734 10.7955 170.575 10.4773 172.666 10.4773C174.121 10.4773 175.513 10.6477 176.842 10.9886C178.183 11.3295 179.371 11.858 180.405 12.5739C181.45 13.2898 182.274 14.2102 182.876 15.3352C183.479 16.4489 183.78 17.7841 183.78 19.3409V37H176.893V33.3693H176.689C176.268 34.1875 175.706 34.9091 175.001 35.5341C174.297 36.1477 173.45 36.6307 172.462 36.983C171.473 37.3239 170.331 37.4943 169.036 37.4943ZM171.115 32.483C172.183 32.483 173.126 32.2727 173.945 31.8523C174.763 31.4205 175.405 30.8409 175.871 30.1136C176.337 29.3864 176.57 28.5625 176.57 27.642V24.8636C176.342 25.0114 176.03 25.1477 175.632 25.2727C175.246 25.3864 174.808 25.4943 174.32 25.5966C173.831 25.6875 173.342 25.7727 172.854 25.8523C172.365 25.9205 171.922 25.983 171.524 26.0398C170.672 26.1648 169.928 26.3636 169.291 26.6364C168.655 26.9091 168.161 27.2784 167.808 27.7443C167.456 28.1989 167.28 28.767 167.28 29.4489C167.28 30.4375 167.638 31.1932 168.354 31.7159C169.081 32.2273 170.001 32.483 171.115 32.483Z" fill="black"/>
</svg>
