<svg width="110" height="45" viewBox="0 0 110 45" fill="none" xmlns="http://www.w3.org/2000/svg">
<g filter="url(#filter0_d_7_7)">
<path d="M34.16 36H25.52V22.32H13.52V36H4.88V2.4H13.52V15.6H25.52V2.4H34.16V36ZM54.1025 17.52C52.0865 17.52 50.0065 18 47.8625 18.96V36H39.4625V10.56H46.9025L47.3825 13.68C50.1345 11.28 53.0145 10.08 56.0225 10.08H58.1825V17.52H54.1025ZM69.6988 29.76C71.3948 29.76 73.3148 29.44 75.4588 28.8V25.92H68.4988C68.0188 25.92 67.6188 26.08 67.2988 26.4C66.9788 26.72 66.8188 27.12 66.8188 27.6V28.08C66.8188 28.56 66.9788 28.96 67.2988 29.28C67.6188 29.6 68.0188 29.76 68.4988 29.76H69.6988ZM60.8188 11.04C66.6748 10.4 71.9548 10.08 76.6588 10.08C78.8348 10.08 80.5788 10.736 81.8907 12.048C83.2028 13.36 83.8588 15.104 83.8588 17.28V36H76.4188L75.9388 33.6C74.4348 34.592 72.8828 35.328 71.2828 35.808C69.7148 36.256 68.3868 36.48 67.2988 36.48H65.6188C63.4428 36.48 61.6988 35.824 60.3867 34.512C59.0748 33.2 58.4188 31.456 58.4188 29.28V27.12C58.4188 24.944 59.0748 23.2 60.3867 21.888C61.6988 20.576 63.4428 19.92 65.6188 19.92H75.4588V18C75.4588 17.52 75.2988 17.12 74.9788 16.8C74.6588 16.48 74.2588 16.32 73.7788 16.32C71.6988 16.32 69.3948 16.416 66.8668 16.608C64.3708 16.8 62.3548 16.944 60.8188 17.04V11.04ZM67.7308 8.592L70.6108 0.431997H79.2508L73.9708 8.592H67.7308ZM105.926 36C102.822 36.32 99.7816 36.48 96.8056 36.48C94.6296 36.48 92.8856 35.824 91.5736 34.512C90.2616 33.2 89.6056 31.456 89.6056 29.28V17.04H86.7256V10.56H89.6056L90.5656 4.8H98.0056V10.56H104.006V17.04H98.0056V28.08C98.0056 28.56 98.1656 28.96 98.4856 29.28C98.8056 29.6 99.2056 29.76 99.6856 29.76H105.926V36Z" fill="#BCBCBC"/>
</g>
<defs>
<filter id="filter0_d_7_7" x="0.879883" y="0.432007" width="109.046" height="44.048" filterUnits="userSpaceOnUse" color-interpolation-filters="sRGB">
<feFlood flood-opacity="0" result="BackgroundImageFix"/>
<feColorMatrix in="SourceAlpha" type="matrix" values="0 0 0 0 0 0 0 0 0 0 0 0 0 0 0 0 0 0 127 0" result="hardAlpha"/>
<feOffset dy="4"/>
<feGaussianBlur stdDeviation="2"/>
<feComposite in2="hardAlpha" operator="out"/>
<feColorMatrix type="matrix" values="0 0 0 0 0 0 0 0 0 0 0 0 0 0 0 0 0 0 0.25 0"/>
<feBlend mode="normal" in2="BackgroundImageFix" result="effect1_dropShadow_7_7"/>
<feBlend mode="normal" in="SourceGraphic" in2="effect1_dropShadow_7_7" result="shape"/>
</filter>
</defs>
</svg>
