<svg width="191" height="127" viewBox="0 0 191 127" fill="none" xmlns="http://www.w3.org/2000/svg">
<g filter="url(#filter0_d_16_101)">
<ellipse cx="95.5" cy="59.5" rx="91.5" ry="59.5" fill="#9F9F9F"/>
</g>
<g clip-path="url(#clip0_16_101)">
<path d="M115.382 86.9648L98.265 77.4818C104.627 72.4765 106.356 62.6401 106.356 57.1238V45.6425C106.356 38.0409 96.2558 29.5747 86.1094 29.5747C75.9685 29.5747 65.5992 38.0409 65.5992 45.6425V57.1238C65.5992 62.1399 67.7198 72.2835 74.1469 77.4383L56.5892 86.962C56.5892 86.962 52 89.0066 52 91.554V98.4433C52 100.98 54.0581 103.035 56.5892 103.035H115.382C117.913 103.035 119.971 100.977 119.971 98.4433V91.554C119.971 88.8516 115.38 86.962 115.38 86.962L115.382 86.9648ZM114.534 97.6032H57.4375V92.7421C57.8263 92.4566 58.3728 92.1277 58.8023 91.9319C58.9301 91.8748 59.0579 91.8123 59.1802 91.7416L76.7406 82.2178C78.342 81.3478 79.4023 79.7383 79.5654 77.9249C79.7285 76.1115 78.97 74.3362 77.5508 73.197C72.9915 69.5403 71.0367 61.4466 71.0367 57.1265V45.6452C71.0367 41.7384 78.3991 35.0149 86.1094 35.0149C93.9639 35.0149 100.918 41.6486 100.918 45.6452V57.1265C100.918 61.384 99.5972 69.5158 94.9046 73.2079C93.4691 74.3389 92.6943 76.117 92.8465 77.9358C92.9988 79.7546 94.0591 81.3805 95.6604 82.2559L112.778 91.7389C112.927 91.8205 113.12 91.9102 113.278 91.9809C113.68 92.1521 114.172 92.4349 114.534 92.685V97.6032ZM134.411 73.4281L117.038 63.9451C123.4 58.9399 125.385 49.1035 125.385 43.5871V32.1058C125.385 24.5042 115.031 15.9537 104.885 15.9537C98.2922 15.9537 91.5524 19.5398 87.6292 24.129C89.8667 24.2677 92.3327 24.2704 94.4642 24.9501C97.3297 22.718 100.951 21.394 104.885 21.394C112.74 21.394 119.947 28.1093 119.947 32.1085V43.5898C119.947 47.8474 118.37 55.9792 113.68 59.6712C112.242 60.8022 111.47 62.5803 111.622 64.3991C111.774 66.2207 112.832 67.8438 114.436 68.7192L131.809 78.2022C131.958 78.2838 132.151 78.3735 132.309 78.4442C132.712 78.6155 133.204 78.8982 133.565 79.1484V83.985H122.59C124.248 85.2356 124.748 87.0246 125.393 89.4225H134.416C136.947 89.4225 139.005 87.3644 139.005 84.8305V78.0255C139.003 75.3204 134.411 73.4281 134.411 73.4281Z" fill="black"/>
</g>
<rect x="45.9478" y="17.0511" width="125.513" height="3" rx="1.5" transform="rotate(40.4865 45.9478 17.0511)" fill="black"/>
<rect x="46.7753" y="101.73" width="125.513" height="3" rx="1.5" transform="rotate(-44.3447 46.7753 101.73)" fill="black"/>
<defs>
<filter id="filter0_d_16_101" x="0" y="0" width="191" height="127" filterUnits="userSpaceOnUse" color-interpolation-filters="sRGB">
<feFlood flood-opacity="0" result="BackgroundImageFix"/>
<feColorMatrix in="SourceAlpha" type="matrix" values="0 0 0 0 0 0 0 0 0 0 0 0 0 0 0 0 0 0 127 0" result="hardAlpha"/>
<feOffset dy="4"/>
<feGaussianBlur stdDeviation="2"/>
<feComposite in2="hardAlpha" operator="out"/>
<feColorMatrix type="matrix" values="0 0 0 0 0 0 0 0 0 0 0 0 0 0 0 0 0 0 0.25 0"/>
<feBlend mode="normal" in2="BackgroundImageFix" result="effect1_dropShadow_16_101"/>
<feBlend mode="normal" in="SourceGraphic" in2="effect1_dropShadow_16_101" result="shape"/>
</filter>
<clipPath id="clip0_16_101">
<rect width="87" height="87" fill="white" transform="translate(52 16)"/>
</clipPath>
</defs>
</svg>
