<svg width="795" height="127" viewBox="0 0 795 127" fill="none" xmlns="http://www.w3.org/2000/svg">
<g filter="url(#filter0_d_11_40)">
<rect x="116.375" y="0.22583" width="561.543" height="118.248" fill="black"/>
<path d="M4.26172 59.3498L116.375 0.226002V118.474L4.26172 59.3498Z" fill="black"/>
<path d="M4.26172 59.3498L116.375 0.226002V118.474L4.26172 59.3498Z" fill="black"/>
<path d="M790.032 59.3497L677.919 118.473V0.22583L790.032 59.3497Z" fill="black"/>
<path d="M790.032 59.3497L677.919 118.473V0.22583L790.032 59.3497Z" fill="black"/>
<path d="M160.4 74H152.6L163.2 46H171.2L181.8 74H174L172.2 69H162.2L160.4 74ZM164 63.8H170.4L167.2 54.4L164 63.8ZM182.598 68H189.798V74H182.598V68ZM182.598 52.8H189.798V58.8H182.598V52.8Z" fill="#979797"/>
<path d="M117.992 39.7024L135.85 57.5608L117.992 75.4192L100.133 57.5608L117.992 39.7024Z" fill="#939393"/>
<path d="M674.422 39.7024L692.281 57.5608L674.422 75.4192L656.564 57.5608L674.422 39.7024Z" fill="#939393"/>
</g>
<defs>
<filter id="filter0_d_11_40" x="0.261719" y="0.22583" width="793.771" height="126.248" filterUnits="userSpaceOnUse" color-interpolation-filters="sRGB">
<feFlood flood-opacity="0" result="BackgroundImageFix"/>
<feColorMatrix in="SourceAlpha" type="matrix" values="0 0 0 0 0 0 0 0 0 0 0 0 0 0 0 0 0 0 127 0" result="hardAlpha"/>
<feOffset dy="4"/>
<feGaussianBlur stdDeviation="2"/>
<feComposite in2="hardAlpha" operator="out"/>
<feColorMatrix type="matrix" values="0 0 0 0 0 0 0 0 0 0 0 0 0 0 0 0 0 0 0.25 0"/>
<feBlend mode="normal" in2="BackgroundImageFix" result="effect1_dropShadow_11_40"/>
<feBlend mode="normal" in="SourceGraphic" in2="effect1_dropShadow_11_40" result="shape"/>
</filter>
</defs>
</svg>
