<svg width="794" height="127" viewBox="0 0 794 127" fill="none" xmlns="http://www.w3.org/2000/svg">
<g filter="url(#filter0_d_11_54)">
<rect x="116.297" y="0.0461426" width="561.543" height="118.248" fill="black"/>
<path d="M4.18286 59.1701L116.297 0.0463147V118.294L4.18286 59.1701Z" fill="black"/>
<path d="M4.18286 59.1701L116.297 0.0463147V118.294L4.18286 59.1701Z" fill="black"/>
<path d="M789.953 59.17L677.84 118.294V0.0461426L789.953 59.17Z" fill="black"/>
<path d="M789.953 59.17L677.84 118.294V0.0461426L789.953 59.17Z" fill="black"/>
<path d="M173 44C176.013 44 178.293 44.7867 179.84 46.36C181.413 47.9067 182.2 50.1867 182.2 53.2V62.8C182.2 65.8133 181.413 68.1067 179.84 69.68C178.293 71.2267 176.013 72 173 72H157.4V44H173ZM175 53.2C175 50.8 173.8 49.6 171.4 49.6H164.6V66.4H171.4C173.8 66.4 175 65.2 175 62.8V53.2ZM184.989 66H192.189V72H184.989V66ZM184.989 50.8H192.189V56.8H184.989V50.8Z" fill="#979797"/>
<path d="M117.913 39.5229L135.771 57.3814L117.913 75.2398L100.054 57.3814L117.913 39.5229Z" fill="#939393"/>
<path d="M678.103 39.5229L695.962 57.3814L678.103 75.2398L660.245 57.3814L678.103 39.5229Z" fill="#939393"/>
</g>
<defs>
<filter id="filter0_d_11_54" x="0.182861" y="0.0461426" width="793.771" height="126.248" filterUnits="userSpaceOnUse" color-interpolation-filters="sRGB">
<feFlood flood-opacity="0" result="BackgroundImageFix"/>
<feColorMatrix in="SourceAlpha" type="matrix" values="0 0 0 0 0 0 0 0 0 0 0 0 0 0 0 0 0 0 127 0" result="hardAlpha"/>
<feOffset dy="4"/>
<feGaussianBlur stdDeviation="2"/>
<feComposite in2="hardAlpha" operator="out"/>
<feColorMatrix type="matrix" values="0 0 0 0 0 0 0 0 0 0 0 0 0 0 0 0 0 0 0.25 0"/>
<feBlend mode="normal" in2="BackgroundImageFix" result="effect1_dropShadow_11_54"/>
<feBlend mode="normal" in="SourceGraphic" in2="effect1_dropShadow_11_54" result="shape"/>
</filter>
</defs>
</svg>
