<svg width="191" height="127" viewBox="0 0 191 127" fill="none" xmlns="http://www.w3.org/2000/svg">
<g filter="url(#filter0_d_16_40)">
<ellipse cx="95.5" cy="59.5" rx="91.5" ry="59.5" fill="#9F9F9F"/>
</g>
<g clip-path="url(#clip0_16_40)">
<path d="M107.25 60C107.25 64.0611 108.863 67.9559 111.735 70.8276C114.607 73.6992 118.501 75.3125 122.562 75.3125C126.624 75.3125 130.518 73.6992 133.39 70.8276C136.262 67.9559 137.875 64.0611 137.875 60C137.875 59.5245 137.764 59.0555 137.552 58.6301L125.306 34.1409C125.265 34.0552 125.218 33.9718 125.167 33.891C124.893 33.4467 124.51 33.08 124.054 32.8256C123.598 32.5712 123.085 32.4376 122.562 32.4375H103.642C103.179 31.1565 102.439 29.9936 101.475 29.0322C100.51 28.0707 99.345 27.3345 98.0625 26.8763V17.125H91.9375V26.8763C90.655 27.3345 89.4897 28.0707 88.5252 29.0322C87.5606 29.9936 86.8206 31.1565 86.3582 32.4375H67.4375C66.8687 32.4374 66.3112 32.5958 65.8274 32.8947C65.3435 33.1937 64.9525 33.6215 64.6981 34.1301L52.4481 58.6301C52.2355 59.0555 52.1249 59.5245 52.125 60C52.125 64.0611 53.7383 67.9559 56.6099 70.8276C59.4816 73.6992 63.3764 75.3125 67.4375 75.3125C71.4986 75.3125 75.3934 73.6992 78.2651 70.8276C81.1367 67.9559 82.75 64.0611 82.75 60C82.7501 59.5245 82.6395 59.0555 82.4269 58.6301L72.3932 38.5625H86.3582C86.8207 39.8433 87.5607 41.006 88.5252 41.9671C89.4898 42.9283 90.6551 43.6643 91.9375 44.1222V96.75H64.375V102.875H125.625V96.75H98.0625V44.1237C99.345 43.6655 100.51 42.9293 101.475 41.9678C102.439 41.0064 103.179 39.8435 103.642 38.5625H117.607L107.573 58.6301C107.361 59.0555 107.25 59.5245 107.25 60ZM67.4375 69.1875C65.544 69.181 63.699 68.5889 62.1554 67.4922C60.6118 66.3956 59.4453 64.8483 58.816 63.0625H76.0578C75.4286 64.8482 74.2623 66.3954 72.719 67.492C71.1756 68.5886 69.3308 69.1809 67.4375 69.1875ZM74.7327 56.9375H60.1423L67.4375 42.3487L74.7327 56.9375ZM95 38.5625C94.3943 38.5625 93.8022 38.3829 93.2986 38.0464C92.7949 37.7099 92.4024 37.2316 92.1706 36.672C91.9388 36.1124 91.8782 35.4966 91.9963 34.9025C92.1145 34.3085 92.4062 33.7628 92.8345 33.3345C93.2628 32.9062 93.8085 32.6145 94.4025 32.4963C94.9966 32.3782 95.6124 32.4388 96.172 32.6706C96.7316 32.9024 97.2099 33.2949 97.5464 33.7986C97.8829 34.3022 98.0625 34.8943 98.0625 35.5C98.0618 36.312 97.7389 37.0905 97.1647 37.6647C96.5905 38.2389 95.812 38.5618 95 38.5625ZM122.562 69.1875C120.669 69.181 118.824 68.5889 117.28 67.4922C115.737 66.3956 114.57 64.8483 113.941 63.0625H131.183C130.554 64.8482 129.387 66.3954 127.844 67.492C126.301 68.5886 124.456 69.1809 122.562 69.1875ZM122.562 42.3487L129.858 56.9375H115.267L122.562 42.3487Z" fill="black"/>
</g>
<defs>
<filter id="filter0_d_16_40" x="0" y="0" width="191" height="127" filterUnits="userSpaceOnUse" color-interpolation-filters="sRGB">
<feFlood flood-opacity="0" result="BackgroundImageFix"/>
<feColorMatrix in="SourceAlpha" type="matrix" values="0 0 0 0 0 0 0 0 0 0 0 0 0 0 0 0 0 0 127 0" result="hardAlpha"/>
<feOffset dy="4"/>
<feGaussianBlur stdDeviation="2"/>
<feComposite in2="hardAlpha" operator="out"/>
<feColorMatrix type="matrix" values="0 0 0 0 0 0 0 0 0 0 0 0 0 0 0 0 0 0 0.25 0"/>
<feBlend mode="normal" in2="BackgroundImageFix" result="effect1_dropShadow_16_40"/>
<feBlend mode="normal" in="SourceGraphic" in2="effect1_dropShadow_16_40" result="shape"/>
</filter>
<clipPath id="clip0_16_40">
<rect width="98" height="98" fill="white" transform="translate(46 11)"/>
</clipPath>
</defs>
</svg>
