<svg width="191" height="127" viewBox="0 0 191 127" fill="none" xmlns="http://www.w3.org/2000/svg">
<g filter="url(#filter0_d_16_70)">
<ellipse cx="95.4999" cy="59.5" rx="91.5" ry="59.5" fill="#9F9F9F"/>
</g>
<g clip-path="url(#clip0_16_70)">
<path d="M107.25 60C107.25 64.0611 108.863 67.9559 111.735 70.8276C114.606 73.6992 118.501 75.3125 122.562 75.3125C126.624 75.3125 130.518 73.6992 133.39 70.8276C136.262 67.9559 137.875 64.0611 137.875 60C137.875 59.5245 137.764 59.0555 137.552 58.6301L125.306 34.1409C125.264 34.0552 125.218 33.9718 125.167 33.891C124.893 33.4467 124.51 33.08 124.054 32.8256C123.598 32.5712 123.084 32.4376 122.562 32.4375H103.642C103.179 31.1565 102.439 29.9936 101.475 29.0322C100.51 28.0707 99.3449 27.3345 98.0624 26.8763V17.125H91.9374V26.8763C90.6549 27.3345 89.4896 28.0707 88.525 29.0322C87.5605 29.9936 86.8205 31.1565 86.3581 32.4375H67.4374C66.8686 32.4374 66.3111 32.5958 65.8272 32.8947C65.3434 33.1937 64.9524 33.6215 64.698 34.1301L52.448 58.6301C52.2354 59.0555 52.1248 59.5245 52.1249 60C52.1249 64.0611 53.7382 67.9559 56.6098 70.8276C59.4815 73.6992 63.3763 75.3125 67.4374 75.3125C71.4985 75.3125 75.3933 73.6992 78.265 70.8276C81.1366 67.9559 82.7499 64.0611 82.7499 60C82.75 59.5245 82.6394 59.0555 82.4268 58.6301L72.3931 38.5625H86.3581C86.8205 39.8433 87.5605 41.006 88.5251 41.9671C89.4897 42.9283 90.655 43.6643 91.9374 44.1222V96.75H64.3749V102.875H125.625V96.75H98.0624V44.1237C99.3449 43.6655 100.51 42.9293 101.475 41.9678C102.439 41.0064 103.179 39.8435 103.642 38.5625H117.607L107.573 58.6301C107.36 59.0555 107.25 59.5245 107.25 60ZM67.4374 69.1875C65.5439 69.181 63.6989 68.5889 62.1553 67.4922C60.6117 66.3956 59.4452 64.8483 58.8158 63.0625H76.0577C75.4285 64.8482 74.2622 66.3954 72.7188 67.492C71.1755 68.5886 69.3306 69.1809 67.4374 69.1875ZM74.7326 56.9375H60.1422L67.4374 42.3487L74.7326 56.9375ZM94.9999 38.5625C94.3942 38.5625 93.8021 38.3829 93.2984 38.0464C92.7948 37.7099 92.4023 37.2316 92.1705 36.672C91.9387 36.1124 91.8781 35.4966 91.9962 34.9025C92.1144 34.3085 92.4061 33.7628 92.8344 33.3345C93.2627 32.9062 93.8083 32.6145 94.4024 32.4963C94.9965 32.3782 95.6122 32.4388 96.1718 32.6706C96.7314 32.9024 97.2097 33.2949 97.5463 33.7986C97.8828 34.3022 98.0624 34.8943 98.0624 35.5C98.0616 36.312 97.7388 37.0905 97.1646 37.6647C96.5904 38.2389 95.8119 38.5618 94.9999 38.5625ZM122.562 69.1875C120.669 69.181 118.824 68.5889 117.28 67.4922C115.737 66.3956 114.57 64.8483 113.941 63.0625H131.183C130.553 64.8482 129.387 66.3954 127.844 67.492C126.3 68.5886 124.456 69.1809 122.562 69.1875ZM122.562 42.3487L129.858 56.9375H115.267L122.562 42.3487Z" fill="black"/>
<rect x="47.9478" y="20.0511" width="125.513" height="3" rx="1.5" transform="rotate(40.4865 47.9478 20.0511)" fill="black"/>
<rect x="48.7753" y="104.73" width="125.513" height="3" rx="1.5" transform="rotate(-44.3447 48.7753 104.73)" fill="black"/>
</g>
<defs>
<filter id="filter0_d_16_70" x="-0.00012207" y="0" width="191" height="127" filterUnits="userSpaceOnUse" color-interpolation-filters="sRGB">
<feFlood flood-opacity="0" result="BackgroundImageFix"/>
<feColorMatrix in="SourceAlpha" type="matrix" values="0 0 0 0 0 0 0 0 0 0 0 0 0 0 0 0 0 0 127 0" result="hardAlpha"/>
<feOffset dy="4"/>
<feGaussianBlur stdDeviation="2"/>
<feComposite in2="hardAlpha" operator="out"/>
<feColorMatrix type="matrix" values="0 0 0 0 0 0 0 0 0 0 0 0 0 0 0 0 0 0 0.25 0"/>
<feBlend mode="normal" in2="BackgroundImageFix" result="effect1_dropShadow_16_70"/>
<feBlend mode="normal" in="SourceGraphic" in2="effect1_dropShadow_16_70" result="shape"/>
</filter>
<clipPath id="clip0_16_70">
<rect width="98" height="98" fill="white" transform="translate(45.9999 11)"/>
</clipPath>
</defs>
</svg>
