<svg width="205" height="44" viewBox="0 0 205 44" fill="none" xmlns="http://www.w3.org/2000/svg">
<g filter="url(#filter0_d_8_8)">
<path d="M4.88 1.4H25.04C28.4 1.4 30.832 2.168 32.336 3.704C33.872 5.208 34.64 7.64 34.64 11V15.8C34.64 19.16 33.872 21.608 32.336 23.144C30.832 24.648 28.4 25.4 25.04 25.4H13.52V35H4.88V1.4ZM26 11C26 9.08 25.04 8.12 23.12 8.12H13.52V18.68H23.12C25.04 18.68 26 17.72 26 15.8V11ZM53.1181 16.52C51.1021 16.52 49.0221 17 46.8781 17.96V35H38.4781V9.56H45.9181L46.3981 12.68C49.1501 10.28 52.0301 9.08 55.0381 9.08H57.1981V16.52H53.1181ZM68.7144 28.76C70.4104 28.76 72.3304 28.44 74.4744 27.8V24.92H67.5144C67.0344 24.92 66.6344 25.08 66.3144 25.4C65.9944 25.72 65.8344 26.12 65.8344 26.6V27.08C65.8344 27.56 65.9944 27.96 66.3144 28.28C66.6344 28.6 67.0344 28.76 67.5144 28.76H68.7144ZM59.8344 10.04C65.6904 9.4 70.9704 9.08 75.6744 9.08C77.8504 9.08 79.5944 9.736 80.9064 11.048C82.2184 12.36 82.8744 14.104 82.8744 16.28V35H75.4344L74.9544 32.6C73.4504 33.592 71.8984 34.328 70.2984 34.808C68.7304 35.256 67.4024 35.48 66.3144 35.48H64.6344C62.4584 35.48 60.7144 34.824 59.4024 33.512C58.0904 32.2 57.4344 30.456 57.4344 28.28V26.12C57.4344 23.944 58.0904 22.2 59.4024 20.888C60.7144 19.576 62.4584 18.92 64.6344 18.92H74.4744V17C74.4744 16.52 74.3144 16.12 73.9944 15.8C73.6744 15.48 73.2744 15.32 72.7944 15.32C70.7144 15.32 68.4104 15.416 65.8824 15.608C63.3864 15.8 61.3704 15.944 59.8344 16.04V10.04ZM103.753 9.56H112.633L103.033 35H93.4325L83.8325 9.56H92.7125L98.2325 26.84L103.753 9.56ZM125.116 10.52V35H116.716V17H113.116V10.52H125.116ZM116.716 0.919998H125.116V7.64H116.716V0.919998ZM147.931 35L147.451 32.6C145.947 33.592 144.395 34.328 142.795 34.808C141.227 35.256 139.899 35.48 138.811 35.48H136.651C134.475 35.48 132.731 34.824 131.419 33.512C130.107 32.2 129.451 30.456 129.451 28.28V17.24C129.451 14.84 130.123 12.968 131.467 11.624C132.843 10.248 134.731 9.56 137.131 9.56H146.971V1.4H155.371V35H147.931ZM141.211 28.52C142.907 28.52 144.827 28.2 146.971 27.56V16.04H139.771C138.491 16.04 137.851 16.68 137.851 17.96V26.84C137.851 27.32 138.011 27.72 138.331 28.04C138.651 28.36 139.051 28.52 139.531 28.52H141.211ZM173.126 35C170.982 35.32 168.934 35.48 166.982 35.48C165.062 35.48 163.446 34.824 162.134 33.512C160.822 32.2 160.166 30.456 160.166 28.28V1.4H168.566V27.08C168.566 27.56 168.726 27.96 169.046 28.28C169.366 28.6 169.766 28.76 170.246 28.76H173.126V35ZM186.558 28.76C188.254 28.76 190.174 28.44 192.318 27.8V24.92H185.358C184.878 24.92 184.478 25.08 184.158 25.4C183.838 25.72 183.678 26.12 183.678 26.6V27.08C183.678 27.56 183.838 27.96 184.158 28.28C184.478 28.6 184.878 28.76 185.358 28.76H186.558ZM177.678 10.04C183.534 9.4 188.814 9.08 193.518 9.08C195.694 9.08 197.438 9.736 198.75 11.048C200.062 12.36 200.718 14.104 200.718 16.28V35H193.278L192.798 32.6C191.294 33.592 189.742 34.328 188.142 34.808C186.574 35.256 185.246 35.48 184.158 35.48H182.478C180.302 35.48 178.558 34.824 177.246 33.512C175.934 32.2 175.278 30.456 175.278 28.28V26.12C175.278 23.944 175.934 22.2 177.246 20.888C178.558 19.576 180.302 18.92 182.478 18.92H192.318V17C192.318 16.52 192.158 16.12 191.838 15.8C191.518 15.48 191.118 15.32 190.638 15.32C188.558 15.32 186.254 15.416 183.726 15.608C181.23 15.8 179.214 15.944 177.678 16.04V10.04Z" fill="#BCBCBC"/>
</g>
<defs>
<filter id="filter0_d_8_8" x="0.879883" y="0.920044" width="203.838" height="42.5599" filterUnits="userSpaceOnUse" color-interpolation-filters="sRGB">
<feFlood flood-opacity="0" result="BackgroundImageFix"/>
<feColorMatrix in="SourceAlpha" type="matrix" values="0 0 0 0 0 0 0 0 0 0 0 0 0 0 0 0 0 0 127 0" result="hardAlpha"/>
<feOffset dy="4"/>
<feGaussianBlur stdDeviation="2"/>
<feComposite in2="hardAlpha" operator="out"/>
<feColorMatrix type="matrix" values="0 0 0 0 0 0 0 0 0 0 0 0 0 0 0 0 0 0 0.25 0"/>
<feBlend mode="normal" in2="BackgroundImageFix" result="effect1_dropShadow_8_8"/>
<feBlend mode="normal" in="SourceGraphic" in2="effect1_dropShadow_8_8" result="shape"/>
</filter>
</defs>
</svg>
