<svg width="294" height="43" viewBox="0 0 294 43" fill="none" xmlns="http://www.w3.org/2000/svg">
<g filter="url(#filter0_d_52_13)">
<path d="M4.88 0.399998H25.04C28.4 0.399998 30.832 1.168 32.336 2.704C33.872 4.208 34.64 6.64 34.64 10V14.32C34.64 16.976 34.192 19.04 33.296 20.512C32.432 21.984 31.04 22.96 29.12 23.44L35.12 34H25.76L20.24 23.92H13.52V34H4.88V0.399998ZM26 10C26 8.08 25.04 7.12 23.12 7.12H13.52V17.2H23.12C25.04 17.2 26 16.24 26 14.32V10ZM48.7869 14.08C47.5069 14.08 46.8669 14.72 46.8669 16V18.64H55.0269V16C55.0269 14.72 54.3869 14.08 53.1069 14.08H48.7869ZM62.4669 33.52C56.2909 34.16 50.6909 34.48 45.6669 34.48C43.4909 34.48 41.7469 33.824 40.4349 32.512C39.1229 31.2 38.4669 29.456 38.4669 27.28V15.76C38.4669 13.36 39.1389 11.488 40.4829 10.144C41.8589 8.768 43.7469 8.08 46.1469 8.08H55.7469C58.1469 8.08 60.0189 8.768 61.3629 10.144C62.7389 11.488 63.4269 13.36 63.4269 15.76V24.64H46.8669V26.56C46.8669 27.04 47.0269 27.44 47.3469 27.76C47.6669 28.08 48.0669 28.24 48.5469 28.24C51.7149 28.24 56.3549 28 62.4669 27.52V33.52ZM66.7681 27.28C73.2641 27.76 78.3841 28 82.1281 28C82.6081 28 83.0081 27.84 83.3281 27.52C83.6481 27.2 83.8081 26.8 83.8081 26.32V24.64H73.4881C71.3121 24.64 69.5681 23.984 68.2561 22.672C66.9441 21.36 66.2881 19.616 66.2881 17.44V15.76C66.2881 13.584 66.9441 11.84 68.2561 10.528C69.5681 9.216 71.3121 8.56 73.4881 8.56H89.8081V14.8H76.3681C75.8881 14.8 75.4881 14.96 75.1681 15.28C74.8481 15.6 74.6881 16 74.6881 16.48C74.6881 16.96 74.8481 17.36 75.1681 17.68C75.4881 18 75.8881 18.16 76.3681 18.16H85.0081C87.1841 18.16 88.9281 18.816 90.2401 20.128C91.5521 21.44 92.2081 23.184 92.2081 25.36V27.28C92.2081 29.456 91.5521 31.2 90.2401 32.512C88.9281 33.824 87.1841 34.48 85.0081 34.48C79.3441 34.48 73.2641 34.16 66.7681 33.52V27.28ZM113.332 34C110.228 34.32 107.188 34.48 104.212 34.48C102.036 34.48 100.292 33.824 98.9799 32.512C97.6679 31.2 97.0119 29.456 97.0119 27.28V15.04H94.1319V8.56H97.0119L97.9719 2.8H105.412V8.56H111.412V15.04H105.412V26.08C105.412 26.56 105.572 26.96 105.892 27.28C106.212 27.6 106.612 27.76 107.092 27.76H113.332V34ZM125.855 27.76C127.551 27.76 129.471 27.44 131.615 26.8V23.92H124.655C124.175 23.92 123.775 24.08 123.455 24.4C123.135 24.72 122.975 25.12 122.975 25.6V26.08C122.975 26.56 123.135 26.96 123.455 27.28C123.775 27.6 124.175 27.76 124.655 27.76H125.855ZM116.975 9.04C122.831 8.4 128.111 8.08 132.815 8.08C134.991 8.08 136.735 8.736 138.047 10.048C139.359 11.36 140.015 13.104 140.015 15.28V34H132.575L132.095 31.6C130.591 32.592 129.039 33.328 127.439 33.808C125.871 34.256 124.543 34.48 123.455 34.48H121.775C119.599 34.48 117.855 33.824 116.543 32.512C115.231 31.2 114.575 29.456 114.575 27.28V25.12C114.575 22.944 115.231 21.2 116.543 19.888C117.855 18.576 119.599 17.92 121.775 17.92H131.615V16C131.615 15.52 131.455 15.12 131.135 14.8C130.815 14.48 130.415 14.32 129.935 14.32C127.855 14.32 125.551 14.416 123.023 14.608C120.527 14.8 118.511 14.944 116.975 15.04V9.04ZM158.962 15.52C156.946 15.52 154.866 16 152.722 16.96V34H144.322V8.56H151.762L152.242 11.68C154.994 9.28 157.874 8.08 160.882 8.08H163.042V15.52H158.962ZM184.16 34C181.056 34.32 178.016 34.48 175.04 34.48C172.864 34.48 171.12 33.824 169.808 32.512C168.496 31.2 167.84 29.456 167.84 27.28V15.04H164.96V8.56H167.84L168.8 2.8H176.24V8.56H182.24V15.04H176.24V26.08C176.24 26.56 176.4 26.96 176.72 27.28C177.04 27.6 177.44 27.76 177.92 27.76H184.16V34ZM212.523 26.8C212.523 29.2 211.835 31.088 210.459 32.464C209.115 33.808 207.243 34.48 204.843 34.48H193.803C191.403 34.48 189.515 33.808 188.139 32.464C186.795 31.088 186.123 29.2 186.123 26.8V15.76C186.123 13.36 186.795 11.488 188.139 10.144C189.515 8.768 191.403 8.08 193.803 8.08H204.843C207.243 8.08 209.115 8.768 210.459 10.144C211.835 11.488 212.523 13.36 212.523 15.76V26.8ZM204.123 16.48C204.123 15.2 203.483 14.56 202.203 14.56H196.443C195.163 14.56 194.523 15.2 194.523 16.48V26.08C194.523 27.36 195.163 28 196.443 28H202.203C203.483 28 204.123 27.36 204.123 26.08V16.48ZM233.409 8.56H242.289L232.689 34H223.089L213.489 8.56H222.369L227.889 25.84L233.409 8.56ZM253.355 27.76C255.051 27.76 256.971 27.44 259.115 26.8V23.92H252.155C251.675 23.92 251.275 24.08 250.955 24.4C250.635 24.72 250.475 25.12 250.475 25.6V26.08C250.475 26.56 250.635 26.96 250.955 27.28C251.275 27.6 251.675 27.76 252.155 27.76H253.355ZM244.475 9.04C250.331 8.4 255.611 8.08 260.315 8.08C262.491 8.08 264.235 8.736 265.547 10.048C266.859 11.36 267.515 13.104 267.515 15.28V34H260.075L259.595 31.6C258.091 32.592 256.539 33.328 254.939 33.808C253.371 34.256 252.043 34.48 250.955 34.48H249.275C247.099 34.48 245.355 33.824 244.043 32.512C242.731 31.2 242.075 29.456 242.075 27.28V25.12C242.075 22.944 242.731 21.2 244.043 19.888C245.355 18.576 247.099 17.92 249.275 17.92H259.115V16C259.115 15.52 258.955 15.12 258.635 14.8C258.315 14.48 257.915 14.32 257.435 14.32C255.355 14.32 253.051 14.416 250.523 14.608C248.027 14.8 246.011 14.944 244.475 15.04V9.04ZM289.582 34C286.478 34.32 283.438 34.48 280.462 34.48C278.286 34.48 276.542 33.824 275.23 32.512C273.918 31.2 273.262 29.456 273.262 27.28V15.04H270.382V8.56H273.262L274.222 2.8H281.662V8.56H287.662V15.04H281.662V26.08C281.662 26.56 281.822 26.96 282.142 27.28C282.462 27.6 282.862 27.76 283.342 27.76H289.582V34Z" fill="#BCBCBC"/>
</g>
<defs>
<filter id="filter0_d_52_13" x="0.880005" y="0.399902" width="292.702" height="42.0801" filterUnits="userSpaceOnUse" color-interpolation-filters="sRGB">
<feFlood flood-opacity="0" result="BackgroundImageFix"/>
<feColorMatrix in="SourceAlpha" type="matrix" values="0 0 0 0 0 0 0 0 0 0 0 0 0 0 0 0 0 0 127 0" result="hardAlpha"/>
<feOffset dy="4"/>
<feGaussianBlur stdDeviation="2"/>
<feComposite in2="hardAlpha" operator="out"/>
<feColorMatrix type="matrix" values="0 0 0 0 0 0 0 0 0 0 0 0 0 0 0 0 0 0 0.25 0"/>
<feBlend mode="normal" in2="BackgroundImageFix" result="effect1_dropShadow_52_13"/>
<feBlend mode="normal" in="SourceGraphic" in2="effect1_dropShadow_52_13" result="shape"/>
</filter>
</defs>
</svg>
