<svg width="117" height="53" viewBox="0 0 117 53" fill="none" xmlns="http://www.w3.org/2000/svg">
<g filter="url(#filter0_d_27_2)">
<path d="M32.32 9.12L15.52 29.28H32.32V36H4.96V29.28L21.76 9.12H4.96V2.4H32.32V9.12ZM49.8569 17.04C48.1609 17.04 46.2409 17.36 44.0969 18V29.52H51.2969C52.5769 29.52 53.2169 28.88 53.2169 27.6V18.72C53.2169 18.24 53.0569 17.84 52.7369 17.52C52.4169 17.2 52.0169 17.04 51.5369 17.04H49.8569ZM44.0969 36V44.16H35.6969V10.56H43.1369L43.6169 12.96C45.1209 11.968 46.6569 11.248 48.2249 10.8C49.8249 10.32 51.1689 10.08 52.2569 10.08H54.4169C56.5929 10.08 58.3369 10.736 59.6489 12.048C60.9609 13.36 61.6169 15.104 61.6169 17.28V28.32C61.6169 30.72 60.9289 32.608 59.5529 33.984C58.2089 35.328 56.3369 36 53.9369 36H44.0969ZM75.7713 16.08C74.4913 16.08 73.8513 16.72 73.8513 18V20.64H82.0113V18C82.0113 16.72 81.3713 16.08 80.0913 16.08H75.7713ZM89.4513 35.52C83.2753 36.16 77.6753 36.48 72.6513 36.48C70.4753 36.48 68.7313 35.824 67.4193 34.512C66.1073 33.2 65.4513 31.456 65.4513 29.28V17.76C65.4513 15.36 66.1233 13.488 67.4673 12.144C68.8433 10.768 70.7313 10.08 73.1313 10.08H82.7313C85.1313 10.08 87.0033 10.768 88.3473 12.144C89.7233 13.488 90.4113 15.36 90.4113 17.76V26.64H73.8513V28.56C73.8513 29.04 74.0113 29.44 74.3313 29.76C74.6513 30.08 75.0513 30.24 75.5312 30.24C78.6993 30.24 83.3393 30 89.4513 29.52V35.52ZM74.8113 0.48L77.9313 4.32L81.0513 0.48H87.0513L81.2913 8.64H74.5713L68.8113 0.48H74.8113ZM112.473 36C109.369 36.32 106.329 36.48 103.353 36.48C101.177 36.48 99.4325 35.824 98.1205 34.512C96.8085 33.2 96.1525 31.456 96.1525 29.28V17.04H93.2725V10.56H96.1525L97.1125 4.8H104.553V10.56H110.553V17.04H104.553V28.08C104.553 28.56 104.713 28.96 105.033 29.28C105.353 29.6 105.753 29.76 106.233 29.76H112.473V36Z" fill="#BCBCBC"/>
</g>
<defs>
<filter id="filter0_d_27_2" x="0.959961" y="0.47998" width="115.512" height="51.6801" filterUnits="userSpaceOnUse" color-interpolation-filters="sRGB">
<feFlood flood-opacity="0" result="BackgroundImageFix"/>
<feColorMatrix in="SourceAlpha" type="matrix" values="0 0 0 0 0 0 0 0 0 0 0 0 0 0 0 0 0 0 127 0" result="hardAlpha"/>
<feOffset dy="4"/>
<feGaussianBlur stdDeviation="2"/>
<feComposite in2="hardAlpha" operator="out"/>
<feColorMatrix type="matrix" values="0 0 0 0 0 0 0 0 0 0 0 0 0 0 0 0 0 0 0.25 0"/>
<feBlend mode="normal" in2="BackgroundImageFix" result="effect1_dropShadow_27_2"/>
<feBlend mode="normal" in="SourceGraphic" in2="effect1_dropShadow_27_2" result="shape"/>
</filter>
</defs>
</svg>
