<svg width="469" height="368" viewBox="0 0 469 368" fill="none" xmlns="http://www.w3.org/2000/svg">
<rect x="190.559" y="322.79" width="42.4113" height="43.6677" rx="13.5" stroke="black" stroke-width="3"/>
<rect x="96.0296" y="322.79" width="42.4113" height="43.6677" rx="13.5" stroke="black" stroke-width="3"/>
<rect x="237.824" y="322.79" width="42.4113" height="43.6677" rx="13.5" stroke="black" stroke-width="3"/>
<rect x="96.0296" y="274.218" width="42.4113" height="43.6677" rx="13.5" stroke="black" stroke-width="3"/>
<rect x="285.089" y="177.073" width="42.4113" height="43.6677" rx="13.5" stroke="black" stroke-width="3"/>
<rect x="237.824" y="177.073" width="42.4113" height="43.6677" rx="13.5" stroke="black" stroke-width="3"/>
<rect x="190.559" y="177.073" width="42.4113" height="43.6677" rx="13.5" stroke="black" stroke-width="3"/>
<rect x="237.824" y="128.5" width="42.4113" height="43.6677" rx="13.5" stroke="black" stroke-width="3"/>
<rect x="190.559" y="128.5" width="42.4113" height="43.6677" rx="13.5" stroke="black" stroke-width="3"/>
<rect x="96.0296" y="128.5" width="42.4113" height="43.6677" rx="13.5" stroke="black" stroke-width="3"/>
<rect x="190.559" y="225.645" width="42.4113" height="43.6677" rx="13.5" stroke="black" stroke-width="3"/>
<rect x="96.0296" y="177.073" width="42.4113" height="43.6677" rx="13.5" stroke="black" stroke-width="3"/>
<rect x="1.5" y="225.645" width="42.4113" height="43.6677" rx="13.5" stroke="black" stroke-width="3"/>
<rect x="48.7648" y="225.645" width="42.4113" height="43.6677" rx="13.5" stroke="black" stroke-width="3"/>
<rect x="96.0296" y="225.645" width="42.4113" height="43.6677" rx="13.5" stroke="black" stroke-width="3"/>
<rect x="285.089" y="274.218" width="42.4113" height="43.6677" rx="13.5" stroke="black" stroke-width="3"/>
<rect x="237.824" y="274.218" width="42.4113" height="43.6677" rx="13.5" stroke="black" stroke-width="3"/>
<rect x="190.559" y="274.218" width="42.4113" height="43.6677" rx="13.5" stroke="black" stroke-width="3"/>
<rect x="48.7648" y="274.218" width="42.4113" height="43.6677" rx="13.5" stroke="black" stroke-width="3"/>
<rect x="144.294" y="226.645" width="40.4113" height="41.6677" rx="12.5" stroke="black" stroke-width="5"/>
<rect x="144.294" y="323.79" width="40.4113" height="41.6677" rx="12.5" stroke="black" stroke-width="5"/>
<rect x="144.294" y="178.073" width="40.4113" height="41.6677" rx="12.5" stroke="black" stroke-width="5"/>
<rect x="144.294" y="129.5" width="40.4113" height="41.6677" rx="12.5" stroke="black" stroke-width="5"/>
<rect x="144.294" y="275.218" width="40.4113" height="41.6677" rx="12.5" stroke="black" stroke-width="5"/>
<path d="M233.688 257L156.511 130L233.688 3H388.317L465.49 130L388.317 257H233.688Z" fill="#5C4B4B" stroke="black" stroke-width="6"/>
<path d="M257.284 141H252.784L260.977 117.727H266.182L274.386 141H269.886L263.67 122.5H263.489L257.284 141ZM257.432 131.875H269.705V135.261H257.432V131.875ZM277.02 141V138.375L288.952 121.261H276.952V117.727H294.179V120.352L282.259 137.466H294.247V141H277.02ZM306.264 141V117.727H310.48V128.42H310.764L319.844 117.727H324.991L315.991 128.17L325.071 141H320.003L313.06 131.023L310.48 134.068V141H306.264ZM342.048 123.545L335.832 141H331.287L325.071 123.545H329.457L333.469 136.511H333.651L337.673 123.545H342.048ZM344.895 141V123.545H349.009V141H344.895ZM345.384 121.25L347.929 116.057H351.952L348.463 121.25H345.384ZM353.011 141V138.386L362.011 127.102V126.955H353.307V123.545H367.045V126.352L358.477 137.443V137.591H367.341V141H353.011Z" fill="white"/>
</svg>
