<svg width="316" height="260" viewBox="0 0 316 260" fill="none" xmlns="http://www.w3.org/2000/svg">
<path d="M80.6879 257L3.5105 130L80.6878 3H235.317L312.49 130L235.317 257H80.6879Z" fill="#5C4B4B" stroke="black" stroke-width="6"/>
<path d="M104.284 141H99.7841L107.977 117.727H113.182L121.386 141H116.886L110.67 122.5H110.489L104.284 141ZM104.432 131.875H116.705V135.261H104.432V131.875ZM124.02 141V138.375L135.952 121.261H123.952V117.727H141.179V120.352L129.259 137.466H141.247V141H124.02ZM153.264 141V117.727H157.48V128.42H157.764L166.844 117.727H171.991L162.991 128.17L172.071 141H167.003L160.06 131.023L157.48 134.068V141H153.264ZM189.048 123.545L182.832 141H178.287L172.071 123.545H176.457L180.469 136.511H180.651L184.673 123.545H189.048ZM191.895 141V123.545H196.009V141H191.895ZM192.384 121.25L194.929 116.057H198.952L195.463 121.25H192.384ZM200.011 141V138.386L209.011 127.102V126.955H200.307V123.545H214.045V126.352L205.477 137.443V137.591H214.341V141H200.011Z" fill="white"/>
</svg>
