<svg width="360" height="283" viewBox="0 0 360 283" fill="none" xmlns="http://www.w3.org/2000/svg">
<path d="M304.406 48.4517C308.053 48.4517 311.015 51.3821 311.015 54.9886C311.015 58.5957 308.052 61.5254 304.406 61.5254C300.76 61.5254 297.797 58.595 297.797 54.9886C297.797 51.3821 300.759 48.4517 304.406 48.4517Z" fill="black"/>
<path d="M242.203 85.3677C245.85 85.3677 248.812 88.2981 248.812 91.9045C248.812 95.511 245.849 98.4414 242.203 98.4414C238.557 98.4414 235.594 95.511 235.594 91.9045C235.594 88.2981 238.556 85.3677 242.203 85.3677Z" fill="black"/>
<path d="M180 202.267C183.647 202.267 186.609 205.198 186.609 208.804C186.609 212.411 183.646 215.341 180 215.341C176.353 215.341 173.391 212.411 173.391 208.804C173.391 205.198 176.353 202.267 180 202.267Z" fill="black"/>
<path d="M117.797 159.199C121.444 159.199 124.406 162.129 124.406 165.736C124.406 169.342 121.443 172.273 117.797 172.273C114.15 172.273 111.188 169.342 111.188 165.736C111.188 162.129 114.15 159.199 117.797 159.199Z" fill="black"/>
<path d="M322.678 54.9886C322.678 62.9408 317.461 69.7012 310.238 72.1157V85.7513C310.238 88.9351 307.625 91.5195 304.406 91.5195C301.187 91.5195 298.574 88.9351 298.574 85.7513V72.1157C296.351 71.3694 294.321 70.2164 292.571 68.7397L260.047 88.0356C260.327 89.2818 260.475 90.5733 260.475 91.9038C260.475 99.8561 255.258 106.616 248.035 109.031V122.667C248.035 125.85 245.422 128.435 242.203 128.435C238.984 128.435 236.371 125.85 236.371 122.667V115.245L193.218 196.344C196.344 199.59 198.272 203.973 198.272 208.803C198.272 216.755 193.055 223.515 185.832 225.93V233.413C185.832 236.597 183.219 239.181 180 239.181C176.781 239.181 174.168 236.597 174.168 233.413V225.93C166.945 223.515 161.728 216.755 161.728 208.803C161.728 207.034 161.993 205.327 162.474 203.704L128.628 180.278C127.081 181.408 125.346 182.3 123.48 182.908C123.574 183.324 123.628 183.754 123.628 184.193V196.498C123.628 199.682 121.015 202.266 117.796 202.266C114.578 202.266 111.965 199.682 111.965 196.498V184.193C111.965 183.754 112.019 183.324 112.113 182.908C110.969 182.539 109.866 182.055 108.831 181.477L72.3642 213.94C73.3285 216.14 73.8649 218.563 73.8649 221.108C73.8649 231.075 65.6696 239.181 55.5928 239.181C45.516 239.181 37.3206 231.075 37.3206 221.108C37.3206 211.141 45.516 203.035 55.5928 203.035C58.8503 203.035 61.9066 203.888 64.5574 205.365L101.024 172.902C100.06 170.703 99.5236 168.28 99.5236 165.734C99.5236 155.767 107.719 147.661 117.796 147.661C127.872 147.661 136.068 155.767 136.068 165.734C136.068 167.503 135.803 169.211 135.322 170.833L169.168 194.259C172.2 192.045 175.948 190.73 179.999 190.73C180.987 190.73 181.959 190.806 182.907 190.96L228.984 104.362C225.858 101.116 223.93 96.7328 223.93 91.9031C223.93 81.936 232.125 73.8298 242.202 73.8298C246.712 73.8298 250.849 75.4604 254.037 78.152L286.561 58.8561C286.281 57.6099 286.133 56.3184 286.133 54.9879C286.133 45.0207 294.328 36.9146 304.405 36.9146C314.482 36.9146 322.678 45.0214 322.678 54.9886ZM311.015 54.9886C311.015 51.3814 308.052 48.4517 304.406 48.4517C300.76 48.4517 297.797 51.3821 297.797 54.9886C297.797 58.5957 300.76 61.5254 304.406 61.5254C308.052 61.5254 311.015 58.5957 311.015 54.9886ZM248.812 91.9045C248.812 88.2974 245.849 85.3677 242.203 85.3677C238.557 85.3677 235.594 88.2981 235.594 91.9045C235.594 95.511 238.557 98.4414 242.203 98.4414C245.849 98.4414 248.812 95.5117 248.812 91.9045ZM186.609 208.804C186.609 205.197 183.646 202.267 180 202.267C176.353 202.267 173.391 205.198 173.391 208.804C173.391 212.411 176.354 215.341 180 215.341C183.647 215.341 186.609 212.411 186.609 208.804ZM124.406 165.736C124.406 162.129 121.443 159.199 117.797 159.199C114.15 159.199 111.188 162.129 111.188 165.736C111.188 169.342 114.151 172.273 117.797 172.273C121.444 172.273 124.406 169.343 124.406 165.736ZM62.2029 221.109C62.2029 217.502 59.2403 214.572 55.5942 214.572C51.948 214.572 48.9854 217.503 48.9854 221.109C48.9854 224.716 51.948 227.646 55.5942 227.646C59.2403 227.646 62.2029 224.716 62.2029 221.109Z" fill="black"/>
<path d="M310.238 221.109V233.414C310.238 236.598 307.625 239.183 304.406 239.183C301.187 239.183 298.574 236.598 298.574 233.414V221.109C298.574 217.925 301.187 215.341 304.406 215.341C307.625 215.341 310.238 217.925 310.238 221.109Z" fill="black"/>
<path d="M310.238 184.194V196.499C310.238 199.683 307.625 202.267 304.406 202.267C301.187 202.267 298.574 199.683 298.574 196.499V184.194C298.574 181.01 301.187 178.426 304.406 178.426C307.625 178.426 310.238 181.01 310.238 184.194Z" fill="black"/>
<path d="M310.238 147.278V159.583C310.238 162.767 307.625 165.351 304.406 165.351C301.187 165.351 298.574 162.767 298.574 159.583V147.278C298.574 144.094 301.187 141.51 304.406 141.51C307.625 141.51 310.238 144.094 310.238 147.278Z" fill="black"/>
<path d="M310.238 110.362V122.667C310.238 125.851 307.625 128.435 304.406 128.435C301.187 128.435 298.574 125.851 298.574 122.667V110.362C298.574 107.178 301.187 104.594 304.406 104.594C307.625 104.594 310.238 107.178 310.238 110.362Z" fill="black"/>
<path d="M248.035 221.109V233.414C248.035 236.598 245.422 239.183 242.203 239.183C238.984 239.183 236.371 236.598 236.371 233.414V221.109C236.371 217.925 238.984 215.341 242.203 215.341C245.422 215.341 248.035 217.925 248.035 221.109Z" fill="black"/>
<path d="M248.035 184.194V196.499C248.035 199.683 245.422 202.267 242.203 202.267C238.984 202.267 236.371 199.683 236.371 196.499V184.194C236.371 181.01 238.984 178.426 242.203 178.426C245.422 178.426 248.035 181.01 248.035 184.194Z" fill="black"/>
<path d="M248.035 147.278V159.583C248.035 162.767 245.422 165.351 242.203 165.351C238.984 165.351 236.371 162.767 236.371 159.583V147.278C236.371 144.094 238.984 141.51 242.203 141.51C245.422 141.51 248.035 144.094 248.035 147.278Z" fill="black"/>
<path d="M123.629 221.109V233.414C123.629 236.598 121.016 239.183 117.797 239.183C114.578 239.183 111.965 236.598 111.965 233.414V221.109C111.965 217.925 114.578 215.341 117.797 215.341C121.016 215.341 123.629 217.925 123.629 221.109Z" fill="black"/>
<path d="M55.5942 214.572C59.241 214.572 62.2029 217.503 62.2029 221.109C62.2029 224.716 59.2403 227.646 55.5942 227.646C51.9481 227.646 48.9854 224.716 48.9854 221.109C48.9854 217.503 51.9473 214.572 55.5942 214.572Z" fill="black"/>
</svg>
