<svg width="585" height="275" viewBox="0 0 585 275" fill="none" xmlns="http://www.w3.org/2000/svg">
<path d="M245.086 42.0555L245.43 44.5162L241.802 45.2605L241.267 50.4657H245.709L251.566 49.9214L254.594 46.3257L251.352 45.0651L249.575 43.051L246.909 38.818L245.709 32.7197L240.713 33.7384L239.322 35.8828V38.2598L241.709 39.9483L245.086 42.0555Z" fill="black"/>
<path d="M240.895 44.065L241.132 40.7903L238.262 39.5483L234.164 40.4693L231.135 45.307V48.4748H234.675L240.895 44.065Z" fill="black"/>
<path d="M156.174 60.2574H151.853V62.5134H152.89C152.89 62.5134 152.965 62.9786 153.03 63.6019L155.718 63.36L157.314 62.3646L157.798 60.262L159.924 60.0992L160.779 58.3223L158.789 57.8943L157.105 57.9409L156.174 60.2574Z" fill="black"/>
<path d="M145.722 64.2066L148.908 63.9415L149.169 61.7413L147.271 60.2574L145.903 62.0343L145.722 64.2066Z" fill="black"/>
<path d="M478.022 169.32L468.746 169.599L468.379 164.552L469.881 165.203L473.514 164.78L473.142 160.156L463.062 160.277L460.331 156.639L460.457 154.695L447.511 143.038L444.269 145.559L462.848 168.213L465.462 169.087V170.311H461.964L462.848 173.134L485.59 174.13L478.022 169.32Z" fill="black"/>
<path d="M494.209 144.052L492.637 143.41L491.902 139.517H489.613L488.157 143.429L486.422 144.982L473.258 152.151V159.212L477.635 165.017H488.711L490.148 161.407L492.637 159.137V157.477L494.209 156.481V144.052Z" fill="black"/>
<path d="M502.405 156.481L495.744 159.049L495.884 160.528H494.209V169.734H497.572L497.107 163.863L499.726 164.836V168.948L502.494 168.762L502.405 156.481Z" fill="black"/>
<path d="M558.462 212.217L556.634 204.784L549.861 198.974L549.322 187.899L544.884 180.242L540.861 180.028L539.195 193.932L531.557 193.378L529.338 192.062L529.129 186.577L533.148 187.415L536.6 184.056L529.269 179.637H520.71L514.532 188.429H512.053V185.656L504.606 186.182L492.916 199.486L486.701 199.625L479.784 204.342L479.343 225.028L475.133 229.052V232.685L495.307 225.768L511.588 225.116L517.63 238.42L536.167 239.048L554.029 222.251L558.462 212.217Z" fill="black"/>
<path d="M520.082 248.668L526.631 249.347L531.906 246.449L532.046 242.448L526.236 241.825L520.082 248.668Z" fill="black"/>
<path d="M583.125 230.508L580.4 231.042L580.32 224.888L575.301 225.209L574.631 234.838L570.24 237.843L562.072 238.955L548.978 248.277L546.782 250.105V253.203L553.578 252.184L570.222 242.006L574.887 238.908L579.906 236.685L585 233.82L583.125 230.508Z" fill="black"/>
<path d="M531.65 161.775L527.417 161.914L527.766 157.495L523.719 155.114L518.021 160.854L521.863 165.571L530.171 166.775L534.795 169.204L534.934 171.469H531.883L532.046 176.139L542.079 175.497L545.731 171.585L549.694 171.218V178.391H556.471V175.497H553.02L552.448 166.775L536.167 159.389L531.65 161.775Z" fill="black"/>
<path d="M410.842 140.889L412.438 145.168L418.159 143.038L418.732 137.121L414.173 136.242L410.842 140.889Z" fill="black"/>
<path d="M343.612 190.741L335.816 189.727V195.783L338.616 199.021L336.486 202.305L333.318 205.942V212.627L337.644 216.79L341.533 210.519L349.19 199.3L352.846 181.67H348.194L343.612 190.741Z" fill="black"/>
<path d="M504.066 172.139H501.48V173.506L503.466 174.13L504.066 172.139Z" fill="black"/>
<path d="M492.67 174.13H489.613V175.795H492.67V174.13Z" fill="black"/>
<path d="M496.996 175.795H498.87V174.334L500.261 174.13V172.697H497.242L496 174.13L494.209 175.795V177.251L496.996 176.995V175.795Z" fill="black"/>
<path d="M504.745 177.144H507.773V175.567L509.862 175.795L509.583 173.134L506.155 173.669L505.829 175.386L501.996 175.795H501.805V178.432H504.745V177.144Z" fill="black"/>
<path d="M449.819 139.707L467.746 156.919L468.695 153.862L454.121 133.135L455.652 127.074L463.332 135.795L467.611 136.233L473.254 132.483L472.328 126.836L462.978 119.357L462.615 112.556L465.267 108.979L469.946 110.472L469.597 113.668L472.281 117.817L474.668 116.105L473.347 111.202L486.557 106.467L492.344 101.634L491.446 92.8887L479.971 80.813L479.757 70.9794H484.85L500.721 83.0551L505.21 81.8782L502.205 77.9894L493.721 72.8215L494.251 65.1277L504.317 65.1509L505.131 55.629L501.289 50.6099L503.578 48.1352L508.457 53.0613L510.057 50.9774L503.699 43.8092L488.143 41.9346L486.064 37.7713L490.576 31.3381L494.144 34.0175L504.917 34.9478L518.477 25.891L520.742 28.7099L517.714 33.45V38.1342L530.185 48.3259L534.139 46.2652L532.664 39.4645L523.78 31.1707L535.488 30.3845V27.0074L541.112 25.8631L536.804 22.8768L536.967 20.5835L548.894 22.4953L551.164 20.5835L535.083 13.8061L476.603 10.8011L471.16 8.02408L462.439 6.69372L455.945 6.48439L450.005 12.4804L447.525 12.2896L439.636 6.43787H416.41L405.656 0L384.096 1.35363L367.754 8.72183L367.852 17.1971L362.791 18.7182L361.656 10.2104L359.753 7.27517L354.13 5.87037L352.813 10.9639L354.46 15.1411L334.328 13.8107L324.75 18.2391L323.294 14.0433L320.866 14.6666L319.107 19.3276L314.088 23.2629L301.827 22.9279L301.25 20.2114L314.116 19.6671L316.73 17.4111L301.254 10.215L282.397 10.7825L271.842 16.1831L267.86 23.2722L260.827 25.998L257.892 29.217L258.566 32.9383L262.195 33.436L264.39 38.8831L270.544 36.3712L271.633 43.6371H269.688L264.627 42.8835L258.98 43.8324L253.519 51.5495L245.653 52.8101L244.546 59.4992L247.881 60.276L246.928 64.5927L239.094 63.053L231.973 64.5927L230.484 68.5699L231.694 76.9103L235.922 78.8733L242.909 78.85L247.677 78.3988L249.137 74.6077L256.533 65.016L261.418 66.0068L266.209 61.6668L267.107 65.0579L278.913 73.0401L277.452 74.9798L272.13 74.6682L274.145 77.5801L277.452 78.3011L281.29 76.7056L281.224 72.0679L282.959 71.2074L281.545 69.7421L273.656 65.3556L271.623 59.4899H278.145L280.229 61.5505L285.899 66.4348L286.099 72.3331L291.974 78.557L294.151 70.0305L298.203 67.7977L298.956 74.7845L302.92 79.1431L314.846 78.9616L318.391 81.5852V87.8463L314.037 91.8002H301.938L294.584 86.3019L286.858 87.0788V91.7955H284.378L281.745 89.8977L268.349 86.4833V77.8173L251.324 79.1384L246.044 81.962H239.336L236.01 81.6317L227.824 86.1856V94.7307L211.073 106.844L212.482 111.979H215.86L215.004 116.887L212.622 117.789L212.482 130.627L226.921 147.099H233.215L233.652 146.085H244.937L248.23 143.08H254.636L258.176 146.615L267.735 147.587L266.483 160.337L277.098 179.098L271.498 189.787L271.893 194.806L276.336 199.202V211.324L282.094 219.097V229.182H299.212L312.074 215.994L316.102 208.803L321.261 207.668V201.658L324.652 197.63L331.806 187.773L330.318 172.827L327.173 167.278L341.291 153.769L356.814 131.535L353.846 130.125L337.672 133.525L333.486 131.465L316.512 99.4475L317.689 98.0566L334.555 118.501L334.97 124.822L338.812 128.734L346.817 128.227L363.307 116.245L368.54 112.863L368.452 108.686L362.926 108.007C362.926 108.007 343.51 98.8521 343.51 98.4474C343.51 98.0287 343.626 90.6047 343.626 90.6047H347.929L348.552 96.0192L357.53 101.201L367.824 101.694L390.064 105.341L395.306 108.639V113.728L394.631 120.678L406.089 139.442L409.717 140.298L413.419 134.953L415.438 119.757L419.253 111.574L425.374 109.276L436.175 110.318L449.805 122.408V139.712L449.819 139.707ZM293.198 20.216L285.755 24.8072V27.8122L289.96 29.7798L290.286 33.864L284.267 42.7672L273.856 42.6649L273.21 40.5344L279.713 37.2131L279.782 24.8956L290.797 17.1739H293.207V20.216H293.198ZM316.312 72.7098V72.6866L306.511 72.2633L303.59 72.6866V66.0115L305.794 63.5275L308.148 62.7832L313.381 62.1925L314.488 60.4109L316.633 61.4668L316.916 67.5744L322.633 69.9235L323.117 72.7145L316.312 72.7098ZM353.953 77.4778H353.93L352.195 79.1059L348.227 78.8081L347.473 77.6173L341.249 77.1382L341.686 75.1519L345.022 72.3144V69.9188L338.682 65.337L338.402 59.4713L339.696 56.6012L344.808 56.1267L349.138 57.9455L349.348 60.9737L343.152 60.6295L342.854 63.4252L350.576 68.5606V72.3517L353.953 74.7798V77.4778Z" fill="black"/>
<path d="M187.108 161.291L173.762 161.175L163.184 157.151L162.677 149.611L159.142 143.429L149.634 143.317L144.08 134.614L139.173 132.256L138.921 134.851L129.99 135.405L126.706 130.851L117.361 128.953L109.676 137.814L97.6287 135.777L96.7495 122.152L87.9114 120.636L91.456 113.984L90.4326 110.142L78.8919 117.896L71.6027 117.017L68.9653 111.3L70.5887 105.402L74.6124 98.0195L83.8412 93.3213H101.727L101.68 98.7684L108.113 101.731L107.583 92.4189L112.212 87.7812L121.557 81.641L122.152 77.3336L131.507 67.6396L141.429 62.1692L140.54 61.4668L147.225 55.1359L149.704 55.7732L150.839 57.1966L153.379 54.3545L153.96 54.0614L151.211 53.6893L148.387 52.745V49.9866L149.867 48.7632H153.197L154.728 49.4237L156.021 52.0473L157.616 51.8147V51.6565L158.1 51.7914L162.728 51.0518L163.37 48.7865L165.961 49.447V51.8891L163.538 53.6009L163.905 56.3175L172.329 58.8991C172.329 58.8991 172.353 58.9456 172.353 58.9922L174.274 58.8294L174.413 55.2057L167.752 52.1775L167.357 50.3959L172.888 48.4981L173.116 43.237L167.352 39.7064L166.98 30.8032L159.002 34.692H156.114L156.872 27.9006L146.136 25.3329L141.652 28.696V39.0273L133.618 41.5392L130.381 48.2701L126.911 48.8144V40.2321L119.366 39.1669L115.598 36.7294L114.068 31.1893L127.571 23.2768L134.167 21.2627L134.814 25.6957L138.517 25.5096L138.814 23.2768L142.657 22.7326L142.698 21.979L141.08 21.2627L140.684 18.9182L145.406 18.5089L148.253 15.5272L148.457 15.3179V15.3411L149.313 14.4387L159.309 13.1874L163.677 16.9227L152.113 23.0675L166.803 26.5237L168.683 21.5929H175.134L177.372 17.3274L172.869 16.1877V10.7872L158.64 4.4842L148.853 5.6192L143.275 8.51252L143.694 15.5737L137.926 14.6713L137.047 10.7872L142.536 5.74479L132.516 5.24707L129.595 6.09367L128.32 9.50332L132.121 10.1546L131.353 13.9363L124.948 14.3224L123.952 16.8064L114.584 17.0715C114.584 17.0715 114.375 11.7873 114.002 11.7873C113.607 11.7873 121.292 11.6756 121.292 11.6756L126.841 6.24717L123.813 4.71678L119.789 8.64742L113.1 8.27994L109.1 2.73053H100.536L91.5909 9.41494H99.7777L100.536 11.8059L98.3869 13.82L107.458 14.0898L108.844 17.3506L98.6427 16.9413L98.1357 14.4341L91.7304 13.0339L88.3301 11.1733L73.2169 11.3128L68.5699 15.8342L65.4021 15.5644L61.8808 13.527L51.4472 10.4011H32.315L21.2534 17.9321L13.8247 19.0811L10.429 21.7278L15.7039 22.5047V24.6212H4.41441L0 27.7657L5.63779 32.5569L21.1138 32.6918L23.2675 30.3892H36.1991L40.8693 34.5431L40.5902 40.9856L44.5302 44.6279L41.2461 46.977L41.9857 55.4523L30.3055 69.6723V83.0086L36.5712 86.0415V98.0101L42.6649 108.304L47.5165 109.044L48.1445 105.518L42.409 96.61L41.274 87.9347H44.6744L46.1303 96.8658L54.5033 109.067L52.2612 113.002L57.6246 121.147L70.8631 124.422V122.292L76.1334 123.017L75.6497 126.813L79.7896 127.529L86.2229 129.334L95.2936 139.652L106.858 140.512L107.993 149.974L100.062 155.5L99.6661 163.896L98.559 169.083L110.007 183.424L110.886 188.303C110.886 188.303 115.054 189.438 115.514 189.438C116.021 189.438 124.859 196.127 124.859 196.127V222.014L128.004 222.939L125.808 234.875L131.107 241.909L130.153 253.747L137.121 266.055L146.094 273.879L155.076 274.042L155.974 271.172L149.383 265.6L149.774 262.818L150.983 259.399L151.234 255.975L146.722 255.84L144.41 253.017L148.178 249.412L148.685 246.728L144.522 245.551L144.75 243.025L150.676 242.151L159.672 237.848L162.705 232.294L172.139 220.172L169.994 210.757L172.888 205.714L181.558 205.97L187.387 201.388L189.285 183.135L195.769 174.879L196.923 169.604L190.996 167.706L187.108 161.291ZM116.505 70.4166H111.691L112.463 67.1418L114.728 66.8999L115.235 65.7882L118.682 65.3137V68.2536H118.701L116.505 70.4166ZM119.831 62.3088L117.561 63.7787L114.719 64.2718C114.719 64.2718 114.719 59.7736 114.719 59.2992H119.831V62.3088ZM124.134 58.8294L126.469 60.2528L124.599 61.7924L122.817 60.2528L124.134 58.8294ZM121.082 62.5972H121.454L127.236 64.2718V67.2395H122.38L121.087 65.337L121.082 62.5972ZM117.31 54.4661L120.436 57.3129L117.31 58.0758V54.4661ZM104.081 54.9406L108.425 53.145H114.398V54.9406H115.691V58.0758H106.602L103.243 57.1501L104.081 54.9406ZM103.243 63.081L106.69 59.3085H111.686L105.281 68.2629L102.62 66.8395L103.243 63.081ZM98.6195 41.7578L102.183 42.5812L100.95 47.4189L97.0844 48.6609L94.6563 43.6278L98.6195 41.7578ZM80.6874 18.9136V18.6298H83.9994L84.2971 17.4855H89.7162V19.8579L88.1161 21.9139H80.6874V18.9136ZM85.9438 26.2771C85.9438 26.2771 89.2743 25.691 89.5302 25.691C89.786 25.691 89.5302 29.0077 89.5302 29.0077L82.0736 29.4821L80.6688 27.7936L85.9438 26.2771Z" fill="black"/>
</svg>
