<svg width="316" height="260" viewBox="0 0 316 260" fill="none" xmlns="http://www.w3.org/2000/svg">
<path d="M80.6879 257L3.5105 130L80.6878 3H235.317L312.49 130L235.317 257H80.6879Z" fill="#224191" stroke="black" stroke-width="6"/>
<path d="M98.2955 117.727H103.455L110.364 134.591H110.636L117.545 117.727H122.705V141H118.659V125.011H118.443L112.011 140.932H108.989L102.557 124.977H102.341V141H98.2955V117.727ZM127.114 141V123.545H131.227V141H127.114ZM129.182 121.068C128.53 121.068 127.97 120.852 127.5 120.42C127.03 119.981 126.795 119.455 126.795 118.841C126.795 118.22 127.03 117.693 127.5 117.261C127.97 116.822 128.53 116.602 129.182 116.602C129.841 116.602 130.402 116.822 130.864 117.261C131.333 117.693 131.568 118.22 131.568 118.841C131.568 119.455 131.333 119.981 130.864 120.42C130.402 120.852 129.841 121.068 129.182 121.068ZM139.571 117.727V141H135.457V117.727H139.571ZM143.801 141V123.545H147.915V141H143.801ZM145.869 121.068C145.218 121.068 144.657 120.852 144.188 120.42C143.718 119.981 143.483 119.455 143.483 118.841C143.483 118.22 143.718 117.693 144.188 117.261C144.657 116.822 145.218 116.602 145.869 116.602C146.528 116.602 147.089 116.822 147.551 117.261C148.021 117.693 148.256 118.22 148.256 118.841C148.256 119.455 148.021 119.981 147.551 120.42C147.089 120.852 146.528 121.068 145.869 121.068ZM159.759 141.341C158.054 141.341 156.577 140.966 155.327 140.216C154.077 139.466 153.107 138.417 152.418 137.068C151.736 135.72 151.395 134.144 151.395 132.341C151.395 130.538 151.736 128.958 152.418 127.602C153.107 126.246 154.077 125.193 155.327 124.443C156.577 123.693 158.054 123.318 159.759 123.318C161.463 123.318 162.94 123.693 164.19 124.443C165.44 125.193 166.406 126.246 167.088 127.602C167.777 128.958 168.122 130.538 168.122 132.341C168.122 134.144 167.777 135.72 167.088 137.068C166.406 138.417 165.44 139.466 164.19 140.216C162.94 140.966 161.463 141.341 159.759 141.341ZM159.781 138.045C160.705 138.045 161.478 137.792 162.099 137.284C162.721 136.769 163.183 136.08 163.486 135.216C163.796 134.352 163.952 133.39 163.952 132.33C163.952 131.261 163.796 130.295 163.486 129.432C163.183 128.561 162.721 127.867 162.099 127.352C161.478 126.837 160.705 126.58 159.781 126.58C158.834 126.58 158.046 126.837 157.418 127.352C156.796 127.867 156.33 128.561 156.02 129.432C155.717 130.295 155.565 131.261 155.565 132.33C155.565 133.39 155.717 134.352 156.02 135.216C156.33 136.08 156.796 136.769 157.418 137.284C158.046 137.792 158.834 138.045 159.781 138.045ZM175.727 130.773V141H171.614V123.545H175.545V126.511H175.75C176.152 125.534 176.792 124.758 177.67 124.182C178.557 123.606 179.652 123.318 180.955 123.318C182.159 123.318 183.208 123.576 184.102 124.091C185.004 124.606 185.701 125.352 186.193 126.33C186.693 127.307 186.939 128.492 186.932 129.886V141H182.818V130.523C182.818 129.356 182.515 128.443 181.909 127.784C181.311 127.125 180.481 126.795 179.42 126.795C178.701 126.795 178.061 126.955 177.5 127.273C176.947 127.583 176.511 128.034 176.193 128.625C175.883 129.216 175.727 129.932 175.727 130.773ZM196.136 141.352C195.03 141.352 194.034 141.155 193.148 140.761C192.269 140.36 191.572 139.769 191.057 138.989C190.549 138.208 190.295 137.246 190.295 136.102C190.295 135.117 190.477 134.303 190.841 133.659C191.205 133.015 191.701 132.5 192.33 132.114C192.958 131.727 193.667 131.436 194.455 131.239C195.25 131.034 196.072 130.886 196.92 130.795C197.943 130.689 198.773 130.595 199.409 130.511C200.045 130.42 200.508 130.284 200.795 130.102C201.091 129.913 201.239 129.621 201.239 129.227V129.159C201.239 128.303 200.985 127.64 200.477 127.17C199.97 126.701 199.239 126.466 198.284 126.466C197.277 126.466 196.477 126.686 195.886 127.125C195.303 127.564 194.909 128.083 194.705 128.682L190.864 128.136C191.167 127.076 191.667 126.189 192.364 125.477C193.061 124.758 193.913 124.22 194.92 123.864C195.928 123.5 197.042 123.318 198.261 123.318C199.102 123.318 199.939 123.417 200.773 123.614C201.606 123.811 202.367 124.136 203.057 124.591C203.746 125.038 204.299 125.648 204.716 126.42C205.14 127.193 205.352 128.159 205.352 129.318V141H201.398V138.602H201.261C201.011 139.087 200.659 139.542 200.205 139.966C199.758 140.383 199.193 140.72 198.511 140.977C197.837 141.227 197.045 141.352 196.136 141.352ZM197.205 138.33C198.03 138.33 198.746 138.167 199.352 137.841C199.958 137.508 200.424 137.068 200.75 136.523C201.083 135.977 201.25 135.383 201.25 134.739V132.682C201.121 132.788 200.902 132.886 200.591 132.977C200.288 133.068 199.947 133.148 199.568 133.216C199.189 133.284 198.814 133.345 198.443 133.398C198.072 133.451 197.75 133.496 197.477 133.534C196.864 133.617 196.314 133.754 195.83 133.943C195.345 134.133 194.962 134.398 194.682 134.739C194.402 135.072 194.261 135.504 194.261 136.034C194.261 136.792 194.538 137.364 195.091 137.75C195.644 138.136 196.348 138.33 197.205 138.33ZM196.864 121.25L199.409 116.057H203.432L199.943 121.25H196.864ZM209.489 141V123.545H213.477V126.455H213.659C213.977 125.447 214.523 124.67 215.295 124.125C216.076 123.572 216.966 123.295 217.966 123.295C218.193 123.295 218.447 123.307 218.727 123.33C219.015 123.345 219.254 123.371 219.443 123.409V127.193C219.269 127.133 218.992 127.08 218.614 127.034C218.242 126.981 217.883 126.955 217.534 126.955C216.784 126.955 216.11 127.117 215.511 127.443C214.92 127.761 214.455 128.205 214.114 128.773C213.773 129.341 213.602 129.996 213.602 130.739V141H209.489ZM212.034 116.386L214.341 119.295L216.648 116.386H220.25V116.545L215.955 121.455H212.739L208.432 116.545V116.386H212.034Z" fill="white"/>
</svg>
