<svg width="523" height="260" viewBox="0 0 523 260" fill="none" xmlns="http://www.w3.org/2000/svg">
<path d="M504.406 35.4517C508.053 35.4517 511.015 38.3821 511.015 41.9886C511.015 45.5957 508.052 48.5254 504.406 48.5254C500.76 48.5254 497.797 45.595 497.797 41.9886C497.797 38.3821 500.759 35.4517 504.406 35.4517Z" fill="black"/>
<path d="M442.203 72.3677C445.85 72.3677 448.812 75.2981 448.812 78.9045C448.812 82.511 445.849 85.4414 442.203 85.4414C438.557 85.4414 435.594 82.511 435.594 78.9045C435.594 75.2981 438.556 72.3677 442.203 72.3677Z" fill="black"/>
<path d="M380 189.267C383.647 189.267 386.609 192.198 386.609 195.804C386.609 199.411 383.646 202.341 380 202.341C376.353 202.341 373.391 199.411 373.391 195.804C373.391 192.198 376.353 189.267 380 189.267Z" fill="black"/>
<path d="M317.797 146.199C321.444 146.199 324.406 149.129 324.406 152.736C324.406 156.342 321.443 159.273 317.797 159.273C314.15 159.273 311.188 156.342 311.188 152.736C311.188 149.129 314.15 146.199 317.797 146.199Z" fill="black"/>
<path d="M522.678 41.9886C522.678 49.9408 517.461 56.7012 510.238 59.1157V72.7513C510.238 75.9351 507.625 78.5195 504.406 78.5195C501.187 78.5195 498.574 75.9351 498.574 72.7513V59.1157C496.351 58.3694 494.321 57.2164 492.571 55.7397L460.047 75.0356C460.327 76.2818 460.475 77.5733 460.475 78.9038C460.475 86.8561 455.258 93.6165 448.035 96.031V109.667C448.035 112.85 445.422 115.435 442.203 115.435C438.984 115.435 436.371 112.85 436.371 109.667V102.245L393.218 183.344C396.344 186.59 398.272 190.973 398.272 195.803C398.272 203.755 393.055 210.515 385.832 212.93V220.413C385.832 223.597 383.219 226.181 380 226.181C376.781 226.181 374.168 223.597 374.168 220.413V212.93C366.945 210.515 361.728 203.755 361.728 195.803C361.728 194.034 361.993 192.327 362.474 190.704L328.628 167.278C327.081 168.408 325.346 169.3 323.48 169.908C323.574 170.324 323.628 170.754 323.628 171.193V183.498C323.628 186.682 321.015 189.266 317.796 189.266C314.578 189.266 311.965 186.682 311.965 183.498V171.193C311.965 170.754 312.019 170.324 312.113 169.908C310.969 169.539 309.866 169.055 308.831 168.477L272.364 200.94C273.329 203.14 273.865 205.563 273.865 208.108C273.865 218.075 265.67 226.181 255.593 226.181C245.516 226.181 237.321 218.075 237.321 208.108C237.321 198.141 245.516 190.035 255.593 190.035C258.85 190.035 261.907 190.888 264.557 192.365L301.024 159.902C300.06 157.703 299.524 155.28 299.524 152.734C299.524 142.767 307.719 134.661 317.796 134.661C327.872 134.661 336.068 142.767 336.068 152.734C336.068 154.503 335.803 156.211 335.322 157.833L369.168 181.259C372.2 179.045 375.948 177.73 379.999 177.73C380.987 177.73 381.959 177.806 382.907 177.96L428.984 91.3621C425.858 88.1163 423.93 83.7328 423.93 78.9031C423.93 68.936 432.125 60.8298 442.202 60.8298C446.712 60.8298 450.849 62.4604 454.037 65.152L486.561 45.8561C486.281 44.6099 486.133 43.3184 486.133 41.9879C486.133 32.0207 494.328 23.9146 504.405 23.9146C514.482 23.9146 522.678 32.0214 522.678 41.9886ZM511.015 41.9886C511.015 38.3814 508.052 35.4517 504.406 35.4517C500.76 35.4517 497.797 38.3821 497.797 41.9886C497.797 45.5957 500.76 48.5254 504.406 48.5254C508.052 48.5254 511.015 45.5957 511.015 41.9886ZM448.812 78.9045C448.812 75.2974 445.849 72.3677 442.203 72.3677C438.557 72.3677 435.594 75.2981 435.594 78.9045C435.594 82.511 438.557 85.4414 442.203 85.4414C445.849 85.4414 448.812 82.5117 448.812 78.9045ZM386.609 195.804C386.609 192.197 383.646 189.267 380 189.267C376.353 189.267 373.391 192.198 373.391 195.804C373.391 199.411 376.354 202.341 380 202.341C383.647 202.341 386.609 199.411 386.609 195.804ZM324.406 152.736C324.406 149.129 321.443 146.199 317.797 146.199C314.15 146.199 311.188 149.129 311.188 152.736C311.188 156.342 314.151 159.273 317.797 159.273C321.444 159.273 324.406 156.343 324.406 152.736ZM262.203 208.109C262.203 204.502 259.24 201.572 255.594 201.572C251.948 201.572 248.985 204.503 248.985 208.109C248.985 211.716 251.948 214.646 255.594 214.646C259.24 214.646 262.203 211.716 262.203 208.109Z" fill="black"/>
<path d="M510.238 208.109V220.414C510.238 223.598 507.625 226.183 504.406 226.183C501.187 226.183 498.574 223.598 498.574 220.414V208.109C498.574 204.925 501.187 202.341 504.406 202.341C507.625 202.341 510.238 204.925 510.238 208.109Z" fill="black"/>
<path d="M510.238 171.194V183.499C510.238 186.683 507.625 189.267 504.406 189.267C501.187 189.267 498.574 186.683 498.574 183.499V171.194C498.574 168.01 501.187 165.426 504.406 165.426C507.625 165.426 510.238 168.01 510.238 171.194Z" fill="black"/>
<path d="M510.238 134.278V146.583C510.238 149.767 507.625 152.351 504.406 152.351C501.187 152.351 498.574 149.767 498.574 146.583V134.278C498.574 131.094 501.187 128.51 504.406 128.51C507.625 128.51 510.238 131.094 510.238 134.278Z" fill="black"/>
<path d="M510.238 97.3622V109.667C510.238 112.851 507.625 115.435 504.406 115.435C501.187 115.435 498.574 112.851 498.574 109.667V97.3622C498.574 94.1783 501.187 91.5939 504.406 91.5939C507.625 91.5939 510.238 94.1783 510.238 97.3622Z" fill="black"/>
<path d="M448.035 208.109V220.414C448.035 223.598 445.422 226.183 442.203 226.183C438.984 226.183 436.371 223.598 436.371 220.414V208.109C436.371 204.925 438.984 202.341 442.203 202.341C445.422 202.341 448.035 204.925 448.035 208.109Z" fill="black"/>
<path d="M448.035 171.194V183.499C448.035 186.683 445.422 189.267 442.203 189.267C438.984 189.267 436.371 186.683 436.371 183.499V171.194C436.371 168.01 438.984 165.426 442.203 165.426C445.422 165.426 448.035 168.01 448.035 171.194Z" fill="black"/>
<path d="M448.035 134.278V146.583C448.035 149.767 445.422 152.351 442.203 152.351C438.984 152.351 436.371 149.767 436.371 146.583V134.278C436.371 131.094 438.984 128.51 442.203 128.51C445.422 128.51 448.035 131.094 448.035 134.278Z" fill="black"/>
<path d="M323.629 208.109V220.414C323.629 223.598 321.016 226.183 317.797 226.183C314.578 226.183 311.965 223.598 311.965 220.414V208.109C311.965 204.925 314.578 202.341 317.797 202.341C321.016 202.341 323.629 204.925 323.629 208.109Z" fill="black"/>
<path d="M255.594 201.572C259.241 201.572 262.203 204.503 262.203 208.109C262.203 211.716 259.24 214.646 255.594 214.646C251.948 214.646 248.985 211.716 248.985 208.109C248.985 204.503 251.947 201.572 255.594 201.572Z" fill="black"/>
<path d="M80.6879 257L3.5105 130L80.6878 3H235.317L312.49 130L235.317 257H80.6879Z" fill="#224191" stroke="black" stroke-width="6"/>
<path d="M98.2955 117.727H103.455L110.364 134.591H110.636L117.545 117.727H122.705V141H118.659V125.011H118.443L112.011 140.932H108.989L102.557 124.977H102.341V141H98.2955V117.727ZM127.114 141V123.545H131.227V141H127.114ZM129.182 121.068C128.53 121.068 127.97 120.852 127.5 120.42C127.03 119.981 126.795 119.455 126.795 118.841C126.795 118.22 127.03 117.693 127.5 117.261C127.97 116.822 128.53 116.602 129.182 116.602C129.841 116.602 130.402 116.822 130.864 117.261C131.333 117.693 131.568 118.22 131.568 118.841C131.568 119.455 131.333 119.981 130.864 120.42C130.402 120.852 129.841 121.068 129.182 121.068ZM139.571 117.727V141H135.457V117.727H139.571ZM143.801 141V123.545H147.915V141H143.801ZM145.869 121.068C145.218 121.068 144.657 120.852 144.188 120.42C143.718 119.981 143.483 119.455 143.483 118.841C143.483 118.22 143.718 117.693 144.188 117.261C144.657 116.822 145.218 116.602 145.869 116.602C146.528 116.602 147.089 116.822 147.551 117.261C148.021 117.693 148.256 118.22 148.256 118.841C148.256 119.455 148.021 119.981 147.551 120.42C147.089 120.852 146.528 121.068 145.869 121.068ZM159.759 141.341C158.054 141.341 156.577 140.966 155.327 140.216C154.077 139.466 153.107 138.417 152.418 137.068C151.736 135.72 151.395 134.144 151.395 132.341C151.395 130.538 151.736 128.958 152.418 127.602C153.107 126.246 154.077 125.193 155.327 124.443C156.577 123.693 158.054 123.318 159.759 123.318C161.463 123.318 162.94 123.693 164.19 124.443C165.44 125.193 166.406 126.246 167.088 127.602C167.777 128.958 168.122 130.538 168.122 132.341C168.122 134.144 167.777 135.72 167.088 137.068C166.406 138.417 165.44 139.466 164.19 140.216C162.94 140.966 161.463 141.341 159.759 141.341ZM159.781 138.045C160.705 138.045 161.478 137.792 162.099 137.284C162.721 136.769 163.183 136.08 163.486 135.216C163.796 134.352 163.952 133.39 163.952 132.33C163.952 131.261 163.796 130.295 163.486 129.432C163.183 128.561 162.721 127.867 162.099 127.352C161.478 126.837 160.705 126.58 159.781 126.58C158.834 126.58 158.046 126.837 157.418 127.352C156.796 127.867 156.33 128.561 156.02 129.432C155.717 130.295 155.565 131.261 155.565 132.33C155.565 133.39 155.717 134.352 156.02 135.216C156.33 136.08 156.796 136.769 157.418 137.284C158.046 137.792 158.834 138.045 159.781 138.045ZM175.727 130.773V141H171.614V123.545H175.545V126.511H175.75C176.152 125.534 176.792 124.758 177.67 124.182C178.557 123.606 179.652 123.318 180.955 123.318C182.159 123.318 183.208 123.576 184.102 124.091C185.004 124.606 185.701 125.352 186.193 126.33C186.693 127.307 186.939 128.492 186.932 129.886V141H182.818V130.523C182.818 129.356 182.515 128.443 181.909 127.784C181.311 127.125 180.481 126.795 179.42 126.795C178.701 126.795 178.061 126.955 177.5 127.273C176.947 127.583 176.511 128.034 176.193 128.625C175.883 129.216 175.727 129.932 175.727 130.773ZM196.136 141.352C195.03 141.352 194.034 141.155 193.148 140.761C192.269 140.36 191.572 139.769 191.057 138.989C190.549 138.208 190.295 137.246 190.295 136.102C190.295 135.117 190.477 134.303 190.841 133.659C191.205 133.015 191.701 132.5 192.33 132.114C192.958 131.727 193.667 131.436 194.455 131.239C195.25 131.034 196.072 130.886 196.92 130.795C197.943 130.689 198.773 130.595 199.409 130.511C200.045 130.42 200.508 130.284 200.795 130.102C201.091 129.913 201.239 129.621 201.239 129.227V129.159C201.239 128.303 200.985 127.64 200.477 127.17C199.97 126.701 199.239 126.466 198.284 126.466C197.277 126.466 196.477 126.686 195.886 127.125C195.303 127.564 194.909 128.083 194.705 128.682L190.864 128.136C191.167 127.076 191.667 126.189 192.364 125.477C193.061 124.758 193.913 124.22 194.92 123.864C195.928 123.5 197.042 123.318 198.261 123.318C199.102 123.318 199.939 123.417 200.773 123.614C201.606 123.811 202.367 124.136 203.057 124.591C203.746 125.038 204.299 125.648 204.716 126.42C205.14 127.193 205.352 128.159 205.352 129.318V141H201.398V138.602H201.261C201.011 139.087 200.659 139.542 200.205 139.966C199.758 140.383 199.193 140.72 198.511 140.977C197.837 141.227 197.045 141.352 196.136 141.352ZM197.205 138.33C198.03 138.33 198.746 138.167 199.352 137.841C199.958 137.508 200.424 137.068 200.75 136.523C201.083 135.977 201.25 135.383 201.25 134.739V132.682C201.121 132.788 200.902 132.886 200.591 132.977C200.288 133.068 199.947 133.148 199.568 133.216C199.189 133.284 198.814 133.345 198.443 133.398C198.072 133.451 197.75 133.496 197.477 133.534C196.864 133.617 196.314 133.754 195.83 133.943C195.345 134.133 194.962 134.398 194.682 134.739C194.402 135.072 194.261 135.504 194.261 136.034C194.261 136.792 194.538 137.364 195.091 137.75C195.644 138.136 196.348 138.33 197.205 138.33ZM196.864 121.25L199.409 116.057H203.432L199.943 121.25H196.864ZM209.489 141V123.545H213.477V126.455H213.659C213.977 125.447 214.523 124.67 215.295 124.125C216.076 123.572 216.966 123.295 217.966 123.295C218.193 123.295 218.447 123.307 218.727 123.33C219.015 123.345 219.254 123.371 219.443 123.409V127.193C219.269 127.133 218.992 127.08 218.614 127.034C218.242 126.981 217.883 126.955 217.534 126.955C216.784 126.955 216.11 127.117 215.511 127.443C214.92 127.761 214.455 128.205 214.114 128.773C213.773 129.341 213.602 129.996 213.602 130.739V141H209.489ZM212.034 116.386L214.341 119.295L216.648 116.386H220.25V116.545L215.955 121.455H212.739L208.432 116.545V116.386H212.034Z" fill="white"/>
</svg>
