<svg width="329" height="241" viewBox="0 0 329 241" fill="none" xmlns="http://www.w3.org/2000/svg">
<rect x="190.559" y="195.79" width="42.4113" height="43.6677" rx="13.5" stroke="black" stroke-width="3"/>
<rect x="96.0296" y="195.79" width="42.4113" height="43.6677" rx="13.5" stroke="black" stroke-width="3"/>
<rect x="237.824" y="195.79" width="42.4113" height="43.6677" rx="13.5" stroke="black" stroke-width="3"/>
<rect x="96.0296" y="147.218" width="42.4113" height="43.6677" rx="13.5" stroke="black" stroke-width="3"/>
<rect x="285.089" y="50.0725" width="42.4113" height="43.6677" rx="13.5" stroke="black" stroke-width="3"/>
<rect x="237.824" y="50.0725" width="42.4113" height="43.6677" rx="13.5" stroke="black" stroke-width="3"/>
<rect x="190.559" y="50.0725" width="42.4113" height="43.6677" rx="13.5" stroke="black" stroke-width="3"/>
<rect x="237.824" y="1.5" width="42.4113" height="43.6677" rx="13.5" stroke="black" stroke-width="3"/>
<rect x="190.559" y="1.5" width="42.4113" height="43.6677" rx="13.5" stroke="black" stroke-width="3"/>
<rect x="96.0296" y="1.5" width="42.4113" height="43.6677" rx="13.5" stroke="black" stroke-width="3"/>
<rect x="190.559" y="98.645" width="42.4113" height="43.6677" rx="13.5" stroke="black" stroke-width="3"/>
<rect x="96.0296" y="50.0725" width="42.4113" height="43.6677" rx="13.5" stroke="black" stroke-width="3"/>
<rect x="1.5" y="98.645" width="42.4113" height="43.6677" rx="13.5" stroke="black" stroke-width="3"/>
<rect x="48.7648" y="98.645" width="42.4113" height="43.6677" rx="13.5" stroke="black" stroke-width="3"/>
<rect x="96.0296" y="98.645" width="42.4113" height="43.6677" rx="13.5" stroke="black" stroke-width="3"/>
<rect x="285.089" y="147.218" width="42.4113" height="43.6677" rx="13.5" stroke="black" stroke-width="3"/>
<rect x="237.824" y="147.218" width="42.4113" height="43.6677" rx="13.5" stroke="black" stroke-width="3"/>
<rect x="190.559" y="147.218" width="42.4113" height="43.6677" rx="13.5" stroke="black" stroke-width="3"/>
<rect x="48.7648" y="147.218" width="42.4113" height="43.6677" rx="13.5" stroke="black" stroke-width="3"/>
<rect x="144.294" y="99.645" width="40.4113" height="41.6677" rx="12.5" stroke="black" stroke-width="5"/>
<rect x="144.294" y="196.79" width="40.4113" height="41.6677" rx="12.5" stroke="black" stroke-width="5"/>
<rect x="144.294" y="51.0725" width="40.4113" height="41.6677" rx="12.5" stroke="black" stroke-width="5"/>
<rect x="144.294" y="2.5" width="40.4113" height="41.6677" rx="12.5" stroke="black" stroke-width="5"/>
<rect x="144.294" y="148.218" width="40.4113" height="41.6677" rx="12.5" stroke="black" stroke-width="5"/>
</svg>
