<svg width="763" height="333" viewBox="0 0 763 333" fill="none" xmlns="http://www.w3.org/2000/svg">
<path d="M245.086 42.0555L245.43 44.5162L241.802 45.2605L241.267 50.4657H245.709L251.566 49.9214L254.594 46.3257L251.352 45.0651L249.575 43.051L246.909 38.818L245.709 32.7197L240.713 33.7384L239.322 35.8828V38.2598L241.709 39.9483L245.086 42.0555Z" fill="black"/>
<path d="M240.895 44.065L241.132 40.7903L238.262 39.5483L234.164 40.4693L231.135 45.307V48.4748H234.675L240.895 44.065Z" fill="black"/>
<path d="M156.174 60.2574H151.853V62.5134H152.89C152.89 62.5134 152.965 62.9786 153.03 63.6019L155.718 63.36L157.314 62.3646L157.798 60.262L159.924 60.0992L160.779 58.3223L158.789 57.8943L157.105 57.9409L156.174 60.2574Z" fill="black"/>
<path d="M145.722 64.2066L148.908 63.9415L149.169 61.7413L147.271 60.2574L145.903 62.0343L145.722 64.2066Z" fill="black"/>
<path d="M478.022 169.32L468.746 169.599L468.379 164.552L469.881 165.203L473.514 164.78L473.142 160.156L463.062 160.277L460.331 156.639L460.457 154.695L447.511 143.038L444.269 145.559L462.848 168.213L465.462 169.087V170.311H461.964L462.848 173.134L485.59 174.13L478.022 169.32Z" fill="black"/>
<path d="M494.209 144.052L492.637 143.41L491.902 139.517H489.613L488.157 143.429L486.422 144.982L473.258 152.151V159.212L477.635 165.017H488.711L490.148 161.407L492.637 159.137V157.477L494.209 156.481V144.052Z" fill="black"/>
<path d="M502.405 156.481L495.744 159.049L495.884 160.528H494.209V169.734H497.572L497.107 163.863L499.726 164.836V168.948L502.494 168.762L502.405 156.481Z" fill="black"/>
<path d="M558.462 212.217L556.634 204.784L549.861 198.974L549.322 187.899L544.884 180.242L540.861 180.028L539.195 193.932L531.557 193.378L529.338 192.062L529.129 186.577L533.148 187.415L536.6 184.056L529.269 179.637H520.71L514.532 188.429H512.053V185.656L504.606 186.182L492.916 199.486L486.701 199.625L479.784 204.342L479.343 225.028L475.133 229.052V232.685L495.307 225.768L511.588 225.116L517.63 238.42L536.167 239.048L554.029 222.251L558.462 212.217Z" fill="black"/>
<path d="M520.082 248.668L526.631 249.347L531.906 246.449L532.046 242.448L526.236 241.825L520.082 248.668Z" fill="black"/>
<path d="M583.125 230.508L580.4 231.042L580.32 224.888L575.301 225.209L574.631 234.838L570.24 237.843L562.072 238.955L548.978 248.277L546.782 250.105V253.203L553.578 252.184L570.222 242.006L574.887 238.908L579.906 236.685L585 233.82L583.125 230.508Z" fill="black"/>
<path d="M531.65 161.775L527.417 161.914L527.766 157.495L523.719 155.114L518.021 160.854L521.863 165.571L530.171 166.775L534.795 169.204L534.934 171.469H531.883L532.046 176.139L542.079 175.497L545.731 171.585L549.694 171.218V178.391H556.471V175.497H553.02L552.448 166.775L536.167 159.389L531.65 161.775Z" fill="black"/>
<path d="M410.842 140.889L412.438 145.168L418.159 143.038L418.732 137.121L414.173 136.242L410.842 140.889Z" fill="black"/>
<path d="M343.612 190.741L335.816 189.727V195.783L338.616 199.021L336.486 202.305L333.318 205.942V212.627L337.644 216.79L341.533 210.519L349.19 199.3L352.846 181.67H348.194L343.612 190.741Z" fill="black"/>
<path d="M504.066 172.139H501.48V173.506L503.466 174.13L504.066 172.139Z" fill="black"/>
<path d="M492.67 174.13H489.613V175.795H492.67V174.13Z" fill="black"/>
<path d="M496.996 175.795H498.87V174.334L500.261 174.13V172.697H497.242L496 174.13L494.209 175.795V177.251L496.996 176.995V175.795Z" fill="black"/>
<path d="M504.745 177.144H507.773V175.567L509.862 175.795L509.583 173.134L506.155 173.669L505.829 175.386L501.996 175.795H501.805V178.432H504.745V177.144Z" fill="black"/>
<path d="M449.819 139.707L467.746 156.919L468.695 153.862L454.121 133.135L455.652 127.074L463.332 135.795L467.611 136.233L473.254 132.483L472.328 126.836L462.978 119.357L462.615 112.556L465.267 108.979L469.946 110.472L469.597 113.668L472.281 117.817L474.668 116.105L473.347 111.202L486.557 106.467L492.344 101.634L491.446 92.8887L479.971 80.813L479.757 70.9794H484.85L500.721 83.0551L505.21 81.8782L502.205 77.9894L493.721 72.8215L494.251 65.1277L504.317 65.1509L505.131 55.629L501.289 50.6099L503.578 48.1352L508.457 53.0613L510.057 50.9774L503.699 43.8092L488.143 41.9346L486.064 37.7713L490.576 31.3381L494.144 34.0175L504.917 34.9478L518.477 25.891L520.742 28.7099L517.714 33.45V38.1342L530.185 48.3259L534.139 46.2652L532.664 39.4645L523.78 31.1707L535.488 30.3845V27.0074L541.112 25.8631L536.804 22.8768L536.967 20.5835L548.894 22.4953L551.164 20.5835L535.083 13.8061L476.603 10.8011L471.16 8.02408L462.439 6.69372L455.945 6.48439L450.005 12.4804L447.525 12.2896L439.636 6.43787H416.41L405.656 0L384.096 1.35363L367.754 8.72183L367.852 17.1971L362.791 18.7182L361.656 10.2104L359.753 7.27517L354.13 5.87037L352.813 10.9639L354.46 15.1411L334.328 13.8107L324.75 18.2391L323.294 14.0433L320.866 14.6666L319.107 19.3276L314.088 23.2629L301.827 22.9279L301.25 20.2114L314.116 19.6671L316.73 17.4111L301.254 10.215L282.397 10.7825L271.842 16.1831L267.86 23.2722L260.827 25.998L257.892 29.217L258.566 32.9383L262.195 33.436L264.39 38.8831L270.544 36.3712L271.633 43.6371H269.688L264.627 42.8835L258.98 43.8324L253.519 51.5495L245.653 52.8101L244.546 59.4992L247.881 60.276L246.928 64.5927L239.094 63.053L231.973 64.5927L230.484 68.5699L231.694 76.9103L235.922 78.8733L242.909 78.85L247.677 78.3988L249.137 74.6077L256.533 65.016L261.418 66.0068L266.209 61.6668L267.107 65.0579L278.913 73.0401L277.452 74.9798L272.13 74.6682L274.145 77.5801L277.452 78.3011L281.29 76.7056L281.224 72.0679L282.959 71.2074L281.545 69.7421L273.656 65.3556L271.623 59.4899H278.145L280.229 61.5505L285.899 66.4348L286.099 72.3331L291.974 78.557L294.151 70.0305L298.203 67.7977L298.956 74.7845L302.92 79.1431L314.846 78.9616L318.391 81.5852V87.8463L314.037 91.8002H301.938L294.584 86.3019L286.858 87.0788V91.7955H284.378L281.745 89.8977L268.349 86.4833V77.8173L251.324 79.1384L246.044 81.962H239.336L236.01 81.6317L227.824 86.1856V94.7307L211.073 106.844L212.482 111.979H215.86L215.004 116.887L212.622 117.789L212.482 130.627L226.921 147.099H233.215L233.652 146.085H244.937L248.23 143.08H254.636L258.176 146.615L267.735 147.587L266.483 160.337L277.098 179.098L271.498 189.787L271.893 194.806L276.336 199.202V211.324L282.094 219.097V229.182H299.212L312.074 215.994L316.102 208.803L321.261 207.668V201.658L324.652 197.63L331.806 187.773L330.318 172.827L327.173 167.278L341.291 153.769L356.814 131.535L353.846 130.125L337.672 133.525L333.486 131.465L316.512 99.4475L317.689 98.0566L334.555 118.501L334.97 124.822L338.812 128.734L346.817 128.227L363.307 116.245L368.54 112.863L368.452 108.686L362.926 108.007C362.926 108.007 343.51 98.8521 343.51 98.4474C343.51 98.0287 343.626 90.6047 343.626 90.6047H347.929L348.552 96.0192L357.53 101.201L367.824 101.694L390.064 105.341L395.306 108.639V113.728L394.631 120.678L406.089 139.442L409.717 140.298L413.419 134.953L415.438 119.757L419.253 111.574L425.374 109.276L436.175 110.318L449.805 122.408V139.712L449.819 139.707ZM293.198 20.216L285.755 24.8072V27.8122L289.96 29.7798L290.286 33.864L284.267 42.7672L273.856 42.6649L273.21 40.5344L279.713 37.2131L279.782 24.8956L290.797 17.1739H293.207V20.216H293.198ZM316.312 72.7098V72.6866L306.511 72.2633L303.59 72.6866V66.0115L305.794 63.5275L308.148 62.7832L313.381 62.1925L314.488 60.4109L316.633 61.4668L316.916 67.5744L322.633 69.9235L323.117 72.7145L316.312 72.7098ZM353.953 77.4778H353.93L352.195 79.1059L348.227 78.8081L347.473 77.6173L341.249 77.1382L341.686 75.1519L345.022 72.3144V69.9188L338.682 65.337L338.402 59.4713L339.696 56.6012L344.808 56.1267L349.138 57.9455L349.348 60.9737L343.152 60.6295L342.854 63.4252L350.576 68.5606V72.3517L353.953 74.7798V77.4778Z" fill="black"/>
<path d="M187.108 161.291L173.762 161.175L163.184 157.151L162.677 149.611L159.142 143.429L149.634 143.317L144.08 134.614L139.173 132.256L138.921 134.851L129.99 135.405L126.706 130.851L117.361 128.953L109.676 137.814L97.6287 135.777L96.7495 122.152L87.9114 120.636L91.456 113.984L90.4326 110.142L78.8919 117.896L71.6027 117.017L68.9653 111.3L70.5887 105.402L74.6124 98.0195L83.8412 93.3213H101.727L101.68 98.7684L108.113 101.731L107.583 92.4189L112.212 87.7812L121.557 81.641L122.152 77.3336L131.507 67.6396L141.429 62.1692L140.54 61.4668L147.225 55.1359L149.704 55.7732L150.839 57.1966L153.379 54.3545L153.96 54.0614L151.211 53.6893L148.387 52.745V49.9866L149.867 48.7632H153.197L154.728 49.4237L156.021 52.0473L157.616 51.8147V51.6565L158.1 51.7914L162.728 51.0518L163.37 48.7865L165.961 49.447V51.8891L163.538 53.6009L163.905 56.3175L172.329 58.8991C172.329 58.8991 172.353 58.9456 172.353 58.9922L174.274 58.8294L174.413 55.2057L167.752 52.1775L167.357 50.3959L172.888 48.4981L173.116 43.237L167.352 39.7064L166.98 30.8032L159.002 34.692H156.114L156.872 27.9006L146.136 25.3329L141.652 28.696V39.0273L133.618 41.5392L130.381 48.2701L126.911 48.8144V40.2321L119.366 39.1669L115.598 36.7294L114.068 31.1893L127.571 23.2768L134.167 21.2627L134.814 25.6957L138.517 25.5096L138.814 23.2768L142.657 22.7326L142.698 21.979L141.08 21.2627L140.684 18.9182L145.406 18.5089L148.253 15.5272L148.457 15.3179V15.3411L149.313 14.4387L159.309 13.1874L163.677 16.9227L152.113 23.0675L166.803 26.5237L168.683 21.5929H175.134L177.372 17.3274L172.869 16.1877V10.7872L158.64 4.4842L148.853 5.6192L143.275 8.51252L143.694 15.5737L137.926 14.6713L137.047 10.7872L142.536 5.74479L132.516 5.24707L129.595 6.09367L128.32 9.50332L132.121 10.1546L131.353 13.9363L124.948 14.3224L123.952 16.8064L114.584 17.0715C114.584 17.0715 114.375 11.7873 114.002 11.7873C113.607 11.7873 121.292 11.6756 121.292 11.6756L126.841 6.24717L123.813 4.71678L119.789 8.64742L113.1 8.27994L109.1 2.73053H100.536L91.5909 9.41494H99.7777L100.536 11.8059L98.3869 13.82L107.458 14.0898L108.844 17.3506L98.6427 16.9413L98.1357 14.4341L91.7304 13.0339L88.3301 11.1733L73.2169 11.3128L68.5699 15.8342L65.4021 15.5644L61.8808 13.527L51.4472 10.4011H32.315L21.2534 17.9321L13.8247 19.0811L10.429 21.7278L15.7039 22.5047V24.6212H4.41441L0 27.7657L5.63779 32.5569L21.1138 32.6918L23.2675 30.3892H36.1991L40.8693 34.5431L40.5902 40.9856L44.5302 44.6279L41.2461 46.977L41.9857 55.4523L30.3055 69.6723V83.0086L36.5712 86.0415V98.0101L42.6649 108.304L47.5165 109.044L48.1445 105.518L42.409 96.61L41.274 87.9347H44.6744L46.1303 96.8658L54.5033 109.067L52.2612 113.002L57.6246 121.147L70.8631 124.422V122.292L76.1334 123.017L75.6497 126.813L79.7896 127.529L86.2229 129.334L95.2936 139.652L106.858 140.512L107.993 149.974L100.062 155.5L99.6661 163.896L98.559 169.083L110.007 183.424L110.886 188.303C110.886 188.303 115.054 189.438 115.514 189.438C116.021 189.438 124.859 196.127 124.859 196.127V222.014L128.004 222.939L125.808 234.875L131.107 241.909L130.153 253.747L137.121 266.055L146.094 273.879L155.076 274.042L155.974 271.172L149.383 265.6L149.774 262.818L150.983 259.399L151.234 255.975L146.722 255.84L144.41 253.017L148.178 249.412L148.685 246.728L144.522 245.551L144.75 243.025L150.676 242.151L159.672 237.848L162.705 232.294L172.139 220.172L169.994 210.757L172.888 205.714L181.558 205.97L187.387 201.388L189.285 183.135L195.769 174.879L196.923 169.604L190.996 167.706L187.108 161.291ZM116.505 70.4166H111.691L112.463 67.1418L114.728 66.8999L115.235 65.7882L118.682 65.3137V68.2536H118.701L116.505 70.4166ZM119.831 62.3088L117.561 63.7787L114.719 64.2718C114.719 64.2718 114.719 59.7736 114.719 59.2992H119.831V62.3088ZM124.134 58.8294L126.469 60.2528L124.599 61.7924L122.817 60.2528L124.134 58.8294ZM121.082 62.5972H121.454L127.236 64.2718V67.2395H122.38L121.087 65.337L121.082 62.5972ZM117.31 54.4661L120.436 57.3129L117.31 58.0758V54.4661ZM104.081 54.9406L108.425 53.145H114.398V54.9406H115.691V58.0758H106.602L103.243 57.1501L104.081 54.9406ZM103.243 63.081L106.69 59.3085H111.686L105.281 68.2629L102.62 66.8395L103.243 63.081ZM98.6195 41.7578L102.183 42.5812L100.95 47.4189L97.0844 48.6609L94.6563 43.6278L98.6195 41.7578ZM80.6874 18.9136V18.6298H83.9994L84.2971 17.4855H89.7162V19.8579L88.1161 21.9139H80.6874V18.9136ZM85.9438 26.2771C85.9438 26.2771 89.2743 25.691 89.5302 25.691C89.786 25.691 89.5302 29.0077 89.5302 29.0077L82.0736 29.4821L80.6688 27.7936L85.9438 26.2771Z" fill="black"/>
<path d="M526.709 329.427L449.513 202.713L526.709 76H681.389L758.579 202.713L681.389 329.427H526.709Z" fill="#D20C0C" stroke="black" stroke-width="6"/>
<path d="M520.839 203V200.539L532.025 184.495H520.775V181.182H536.926V183.643L525.751 199.687H536.99V203H520.839ZM547.888 203.32C546.248 203.32 544.831 202.979 543.638 202.297C542.452 201.608 541.539 200.635 540.9 199.378C540.261 198.114 539.941 196.626 539.941 194.914C539.941 193.231 540.261 191.754 540.9 190.482C541.546 189.204 542.448 188.209 543.606 187.499C544.763 186.782 546.123 186.423 547.686 186.423C548.694 186.423 549.646 186.587 550.541 186.913C551.443 187.233 552.238 187.73 552.927 188.405C553.623 189.08 554.17 189.939 554.568 190.983C554.966 192.02 555.165 193.256 555.165 194.69V195.873H541.752V193.273H551.468C551.461 192.535 551.301 191.878 550.988 191.303C550.676 190.72 550.239 190.262 549.678 189.928C549.124 189.594 548.478 189.428 547.739 189.428C546.951 189.428 546.258 189.619 545.662 190.003C545.065 190.379 544.6 190.876 544.266 191.494C543.939 192.105 543.773 192.776 543.765 193.508V195.777C543.765 196.729 543.939 197.545 544.287 198.227C544.636 198.902 545.122 199.42 545.747 199.783C546.372 200.138 547.104 200.315 547.942 200.315C548.503 200.315 549.011 200.237 549.465 200.081C549.92 199.918 550.314 199.68 550.648 199.367C550.981 199.055 551.234 198.668 551.404 198.206L555.005 198.611C554.778 199.562 554.344 200.393 553.705 201.104C553.073 201.807 552.263 202.354 551.276 202.744C550.289 203.128 549.16 203.32 547.888 203.32ZM558.427 203V186.636H562.113V189.417H562.305C562.646 188.479 563.211 187.748 563.999 187.222C564.787 186.69 565.728 186.423 566.822 186.423C567.93 186.423 568.864 186.693 569.624 187.233C570.391 187.766 570.931 188.494 571.243 189.417H571.414C571.776 188.508 572.387 187.783 573.246 187.244C574.113 186.697 575.139 186.423 576.325 186.423C577.831 186.423 579.059 186.899 580.011 187.851C580.963 188.803 581.439 190.191 581.439 192.016V203H577.571V192.613C577.571 191.597 577.302 190.855 576.762 190.386C576.222 189.91 575.561 189.673 574.78 189.673C573.85 189.673 573.122 189.964 572.596 190.546C572.078 191.121 571.819 191.871 571.819 192.794V203H568.037V192.453C568.037 191.608 567.781 190.933 567.27 190.429C566.765 189.925 566.105 189.673 565.288 189.673C564.734 189.673 564.23 189.815 563.775 190.099C563.321 190.376 562.958 190.77 562.689 191.281C562.419 191.785 562.284 192.375 562.284 193.05V203H558.427ZM592.595 203.32C590.955 203.32 589.538 202.979 588.345 202.297C587.159 201.608 586.246 200.635 585.607 199.378C584.968 198.114 584.648 196.626 584.648 194.914C584.648 193.231 584.968 191.754 585.607 190.482C586.253 189.204 587.155 188.209 588.313 187.499C589.47 186.782 590.83 186.423 592.393 186.423C593.401 186.423 594.353 186.587 595.248 186.913C596.15 187.233 596.946 187.73 597.634 188.405C598.33 189.08 598.877 189.939 599.275 190.983C599.673 192.02 599.872 193.256 599.872 194.69V195.873H586.459V193.273H596.175C596.168 192.535 596.008 191.878 595.696 191.303C595.383 190.72 594.946 190.262 594.385 189.928C593.831 189.594 593.185 189.428 592.446 189.428C591.658 189.428 590.965 189.619 590.369 190.003C589.772 190.379 589.307 190.876 588.973 191.494C588.647 192.105 588.48 192.776 588.473 193.508V195.777C588.473 196.729 588.647 197.545 588.995 198.227C589.343 198.902 589.829 199.42 590.454 199.783C591.079 200.138 591.811 200.315 592.649 200.315C593.21 200.315 593.718 200.237 594.172 200.081C594.627 199.918 595.021 199.68 595.355 199.367C595.688 199.055 595.941 198.668 596.111 198.206L599.712 198.611C599.485 199.562 599.051 200.393 598.412 201.104C597.78 201.807 596.97 202.354 595.983 202.744C594.996 203.128 593.867 203.32 592.595 203.32ZM590.124 179.925L592.286 182.652L594.449 179.925H597.826V180.074L593.799 184.676H590.784L586.747 180.074V179.925H590.124ZM603.134 209.136V186.636H606.927V189.342H607.151C607.349 188.945 607.63 188.522 607.992 188.075C608.354 187.62 608.844 187.233 609.462 186.913C610.08 186.587 610.869 186.423 611.827 186.423C613.092 186.423 614.232 186.746 615.247 187.393C616.27 188.032 617.08 188.98 617.676 190.237C618.28 191.487 618.582 193.021 618.582 194.839C618.582 196.636 618.287 198.163 617.697 199.42C617.108 200.678 616.305 201.636 615.29 202.297C614.274 202.957 613.124 203.288 611.838 203.288C610.901 203.288 610.123 203.131 609.505 202.819C608.887 202.506 608.39 202.13 608.014 201.69C607.644 201.242 607.357 200.82 607.151 200.422H606.991V209.136H603.134ZM606.916 194.818C606.916 195.876 607.065 196.803 607.364 197.599C607.669 198.394 608.106 199.016 608.674 199.463C609.249 199.903 609.945 200.124 610.762 200.124C611.614 200.124 612.328 199.896 612.903 199.442C613.479 198.98 613.912 198.352 614.203 197.556C614.501 196.754 614.651 195.841 614.651 194.818C614.651 193.803 614.505 192.901 614.214 192.112C613.923 191.324 613.489 190.706 612.914 190.258C612.339 189.811 611.621 189.587 610.762 189.587C609.938 189.587 609.239 189.804 608.663 190.237C608.088 190.67 607.651 191.278 607.353 192.059C607.062 192.84 606.916 193.76 606.916 194.818ZM621.884 203V186.636H625.741V203H621.884ZM623.823 184.314C623.212 184.314 622.687 184.111 622.246 183.707C621.806 183.295 621.586 182.801 621.586 182.226C621.586 181.643 621.806 181.15 622.246 180.745C622.687 180.333 623.212 180.127 623.823 180.127C624.441 180.127 624.967 180.333 625.4 180.745C625.84 181.15 626.06 181.643 626.06 182.226C626.06 182.801 625.84 183.295 625.4 183.707C624.967 184.111 624.441 184.314 623.823 184.314ZM642.64 190.962L639.124 191.345C639.025 190.99 638.851 190.656 638.602 190.344C638.361 190.031 638.034 189.779 637.622 189.587C637.21 189.396 636.706 189.3 636.109 189.3C635.307 189.3 634.632 189.474 634.085 189.822C633.545 190.17 633.279 190.621 633.286 191.175C633.279 191.651 633.453 192.038 633.808 192.336C634.17 192.634 634.767 192.879 635.598 193.071L638.389 193.668C639.937 194.001 641.088 194.531 641.841 195.255C642.601 195.979 642.984 196.928 642.991 198.099C642.984 199.129 642.682 200.038 642.086 200.827C641.496 201.608 640.676 202.219 639.625 202.659C638.574 203.099 637.366 203.32 636.003 203.32C634 203.32 632.388 202.901 631.166 202.062C629.944 201.217 629.216 200.042 628.982 198.536L632.743 198.174C632.913 198.913 633.275 199.47 633.829 199.847C634.383 200.223 635.104 200.411 635.992 200.411C636.908 200.411 637.643 200.223 638.197 199.847C638.758 199.47 639.039 199.005 639.039 198.451C639.039 197.982 638.858 197.595 638.496 197.29C638.14 196.984 637.586 196.75 636.834 196.587L634.042 196.001C632.473 195.674 631.312 195.124 630.559 194.349C629.806 193.568 629.433 192.581 629.44 191.388C629.433 190.379 629.707 189.506 630.261 188.767C630.822 188.021 631.599 187.446 632.594 187.041C633.595 186.629 634.749 186.423 636.056 186.423C637.974 186.423 639.483 186.832 640.584 187.648C641.692 188.465 642.377 189.57 642.64 190.962ZM650.028 193.412V203H646.171V186.636H649.857V189.417H650.049C650.426 188.501 651.026 187.773 651.85 187.233C652.681 186.693 653.707 186.423 654.928 186.423C656.058 186.423 657.041 186.665 657.879 187.148C658.725 187.631 659.378 188.33 659.84 189.246C660.308 190.163 660.539 191.274 660.532 192.581V203H656.676V193.178C656.676 192.084 656.392 191.228 655.823 190.61C655.262 189.992 654.485 189.683 653.49 189.683C652.816 189.683 652.215 189.832 651.69 190.131C651.171 190.422 650.763 190.844 650.465 191.398C650.173 191.952 650.028 192.624 650.028 193.412ZM671.697 203.32C670.056 203.32 668.639 202.979 667.446 202.297C666.26 201.608 665.348 200.635 664.708 199.378C664.069 198.114 663.749 196.626 663.749 194.914C663.749 193.231 664.069 191.754 664.708 190.482C665.355 189.204 666.257 188.209 667.414 187.499C668.572 186.782 669.932 186.423 671.495 186.423C672.503 186.423 673.455 186.587 674.35 186.913C675.252 187.233 676.047 187.73 676.736 188.405C677.432 189.08 677.979 189.939 678.377 190.983C678.774 192.02 678.973 193.256 678.973 194.69V195.873H665.561V193.273H675.276C675.269 192.535 675.11 191.878 674.797 191.303C674.485 190.72 674.048 190.262 673.487 189.928C672.933 189.594 672.286 189.428 671.548 189.428C670.759 189.428 670.067 189.619 669.47 190.003C668.874 190.379 668.409 190.876 668.075 191.494C667.748 192.105 667.581 192.776 667.574 193.508V195.777C667.574 196.729 667.748 197.545 668.096 198.227C668.444 198.902 668.931 199.42 669.556 199.783C670.181 200.138 670.912 200.315 671.75 200.315C672.311 200.315 672.819 200.237 673.274 200.081C673.728 199.918 674.122 199.68 674.456 199.367C674.79 199.055 675.042 198.668 675.213 198.206L678.813 198.611C678.586 199.562 678.153 200.393 677.514 201.104C676.882 201.807 676.072 202.354 675.085 202.744C674.098 203.128 672.968 203.32 671.697 203.32ZM669.907 184.484L672.294 179.616H676.065L672.794 184.484H669.907ZM550.839 245.136V222.636H554.632V225.342H554.856C555.055 224.945 555.335 224.522 555.697 224.075C556.06 223.62 556.55 223.233 557.167 222.913C557.785 222.587 558.574 222.423 559.533 222.423C560.797 222.423 561.937 222.746 562.952 223.393C563.975 224.032 564.785 224.98 565.381 226.237C565.985 227.487 566.287 229.021 566.287 230.839C566.287 232.636 565.992 234.163 565.403 235.42C564.813 236.678 564.011 237.636 562.995 238.297C561.979 238.957 560.829 239.288 559.543 239.288C558.606 239.288 557.828 239.131 557.21 238.819C556.592 238.506 556.095 238.13 555.719 237.69C555.349 237.242 555.062 236.82 554.856 236.422H554.696V245.136H550.839ZM554.621 230.818C554.621 231.876 554.77 232.803 555.069 233.599C555.374 234.394 555.811 235.016 556.379 235.463C556.954 235.903 557.65 236.124 558.467 236.124C559.319 236.124 560.033 235.896 560.609 235.442C561.184 234.98 561.617 234.352 561.908 233.556C562.207 232.754 562.356 231.841 562.356 230.818C562.356 229.803 562.21 228.901 561.919 228.112C561.628 227.324 561.194 226.706 560.619 226.258C560.044 225.811 559.327 225.587 558.467 225.587C557.643 225.587 556.944 225.804 556.368 226.237C555.793 226.67 555.356 227.278 555.058 228.059C554.767 228.84 554.621 229.76 554.621 230.818ZM576.834 239.32C575.193 239.32 573.776 238.979 572.583 238.297C571.397 237.608 570.484 236.635 569.845 235.378C569.206 234.114 568.886 232.626 568.886 230.914C568.886 229.231 569.206 227.754 569.845 226.482C570.491 225.204 571.393 224.209 572.551 223.499C573.709 222.782 575.069 222.423 576.631 222.423C577.64 222.423 578.591 222.587 579.486 222.913C580.388 223.233 581.184 223.73 581.873 224.405C582.569 225.08 583.116 225.939 583.513 226.983C583.911 228.02 584.11 229.256 584.11 230.69V231.873H570.697V229.273H580.413C580.406 228.535 580.246 227.878 579.934 227.303C579.621 226.72 579.185 226.262 578.623 225.928C578.069 225.594 577.423 225.428 576.685 225.428C575.896 225.428 575.204 225.619 574.607 226.003C574.011 226.379 573.545 226.876 573.211 227.494C572.885 228.105 572.718 228.776 572.711 229.508V231.777C572.711 232.729 572.885 233.545 573.233 234.227C573.581 234.902 574.067 235.42 574.692 235.783C575.317 236.138 576.049 236.315 576.887 236.315C577.448 236.315 577.956 236.237 578.41 236.081C578.865 235.918 579.259 235.68 579.593 235.367C579.927 235.055 580.179 234.668 580.349 234.206L583.95 234.611C583.723 235.562 583.29 236.393 582.65 237.104C582.018 237.807 581.209 238.354 580.221 238.744C579.234 239.128 578.105 239.32 576.834 239.32ZM590.174 222.636L593.477 228.677L596.833 222.636H600.913L595.98 230.818L600.998 239H596.939L593.477 233.109L590.047 239H585.956L590.941 230.818L586.083 222.636H590.174ZM610.525 239.32C608.884 239.32 607.468 238.979 606.274 238.297C605.088 237.608 604.176 236.635 603.536 235.378C602.897 234.114 602.578 232.626 602.578 230.914C602.578 229.231 602.897 227.754 603.536 226.482C604.183 225.204 605.085 224.209 606.242 223.499C607.4 222.782 608.76 222.423 610.323 222.423C611.331 222.423 612.283 222.587 613.178 222.913C614.08 223.233 614.875 223.73 615.564 224.405C616.26 225.08 616.807 225.939 617.205 226.983C617.602 228.02 617.801 229.256 617.801 230.69V231.873H604.389V229.273H614.105C614.098 228.535 613.938 227.878 613.625 227.303C613.313 226.72 612.876 226.262 612.315 225.928C611.761 225.594 611.115 225.428 610.376 225.428C609.588 225.428 608.895 225.619 608.298 226.003C607.702 226.379 607.237 226.876 606.903 227.494C606.576 228.105 606.409 228.776 606.402 229.508V231.777C606.402 232.729 606.576 233.545 606.924 234.227C607.272 234.902 607.759 235.42 608.384 235.783C609.009 236.138 609.74 236.315 610.578 236.315C611.139 236.315 611.647 236.237 612.102 236.081C612.556 235.918 612.95 235.68 613.284 235.367C613.618 235.055 613.87 234.668 614.041 234.206L617.642 234.611C617.414 235.562 616.981 236.393 616.342 237.104C615.71 237.807 614.9 238.354 613.913 238.744C612.926 239.128 611.796 239.32 610.525 239.32ZM633.997 226.962L630.482 227.345C630.382 226.99 630.208 226.656 629.96 226.344C629.718 226.031 629.391 225.779 628.979 225.587C628.567 225.396 628.063 225.3 627.467 225.3C626.664 225.3 625.989 225.474 625.442 225.822C624.903 226.17 624.636 226.621 624.643 227.175C624.636 227.651 624.81 228.038 625.166 228.336C625.528 228.634 626.124 228.879 626.955 229.071L629.746 229.668C631.295 230.001 632.445 230.531 633.198 231.255C633.958 231.979 634.342 232.928 634.349 234.099C634.342 235.129 634.04 236.038 633.443 236.827C632.854 237.608 632.033 238.219 630.982 238.659C629.931 239.099 628.724 239.32 627.36 239.32C625.357 239.32 623.745 238.901 622.523 238.062C621.302 237.217 620.574 236.042 620.34 234.536L624.1 234.174C624.271 234.913 624.633 235.47 625.187 235.847C625.741 236.223 626.462 236.411 627.349 236.411C628.266 236.411 629.001 236.223 629.555 235.847C630.116 235.47 630.396 235.005 630.396 234.451C630.396 233.982 630.215 233.595 629.853 233.29C629.498 232.984 628.944 232.75 628.191 232.587L625.4 232.001C623.83 231.674 622.669 231.124 621.916 230.349C621.163 229.568 620.791 228.581 620.798 227.388C620.791 226.379 621.064 225.506 621.618 224.767C622.179 224.021 622.957 223.446 623.951 223.041C624.952 222.629 626.107 222.423 627.413 222.423C629.331 222.423 630.84 222.832 631.941 223.648C633.049 224.465 633.734 225.57 633.997 226.962ZM644.667 239.32C643.069 239.32 641.684 238.968 640.512 238.265C639.34 237.562 638.431 236.578 637.784 235.314C637.145 234.05 636.826 232.572 636.826 230.882C636.826 229.192 637.145 227.711 637.784 226.44C638.431 225.168 639.34 224.181 640.512 223.478C641.684 222.775 643.069 222.423 644.667 222.423C646.265 222.423 647.65 222.775 648.821 223.478C649.993 224.181 650.899 225.168 651.538 226.44C652.184 227.711 652.507 229.192 652.507 230.882C652.507 232.572 652.184 234.05 651.538 235.314C650.899 236.578 649.993 237.562 648.821 238.265C647.65 238.968 646.265 239.32 644.667 239.32ZM644.688 236.23C645.554 236.23 646.279 235.992 646.861 235.516C647.444 235.033 647.877 234.387 648.161 233.577C648.452 232.768 648.598 231.866 648.598 230.871C648.598 229.87 648.452 228.964 648.161 228.155C647.877 227.338 647.444 226.688 646.861 226.205C646.279 225.722 645.554 225.481 644.688 225.481C643.8 225.481 643.061 225.722 642.472 226.205C641.89 226.688 641.453 227.338 641.162 228.155C640.878 228.964 640.735 229.87 640.735 230.871C640.735 231.866 640.878 232.768 641.162 233.577C641.453 234.387 641.89 235.033 642.472 235.516C643.061 235.992 643.8 236.23 644.688 236.23Z" fill="white"/>
</svg>
