<svg width="317" height="260" viewBox="0 0 317 260" fill="none" xmlns="http://www.w3.org/2000/svg">
<path d="M80.7087 256.427L3.51288 129.713L80.7087 3H235.389L312.579 129.713L235.389 256.427H80.7087Z" fill="#D20C0C" stroke="black" stroke-width="6"/>
<path d="M74.8393 130V127.539L86.0254 111.495H74.7754V108.182H90.926V110.643L79.7506 126.687H90.9899V130H74.8393ZM101.888 130.32C100.248 130.32 98.8308 129.979 97.6376 129.297C96.4516 128.608 95.5389 127.635 94.8997 126.378C94.2605 125.114 93.9409 123.626 93.9409 121.914C93.9409 120.231 94.2605 118.754 94.8997 117.482C95.546 116.204 96.448 115.209 97.6057 114.499C98.7633 113.782 100.123 113.423 101.686 113.423C102.694 113.423 103.646 113.587 104.541 113.913C105.443 114.233 106.238 114.73 106.927 115.405C107.623 116.08 108.17 116.939 108.568 117.983C108.966 119.02 109.165 120.256 109.165 121.69V122.873H95.752V120.273H105.468C105.461 119.535 105.301 118.878 104.988 118.303C104.676 117.72 104.239 117.262 103.678 116.928C103.124 116.594 102.478 116.428 101.739 116.428C100.951 116.428 100.258 116.619 99.6618 117.003C99.0652 117.379 98.6 117.876 98.2662 118.494C97.9395 119.105 97.7726 119.776 97.7655 120.508V122.777C97.7655 123.729 97.9395 124.545 98.2875 125.227C98.6355 125.902 99.122 126.42 99.747 126.783C100.372 127.138 101.104 127.315 101.942 127.315C102.503 127.315 103.011 127.237 103.465 127.081C103.92 126.918 104.314 126.68 104.648 126.367C104.981 126.055 105.234 125.668 105.404 125.206L109.005 125.611C108.778 126.562 108.344 127.393 107.705 128.104C107.073 128.807 106.263 129.354 105.276 129.744C104.289 130.128 103.16 130.32 101.888 130.32ZM112.427 130V113.636H116.113V116.417H116.305C116.646 115.479 117.211 114.748 117.999 114.222C118.787 113.69 119.728 113.423 120.822 113.423C121.93 113.423 122.864 113.693 123.624 114.233C124.391 114.766 124.931 115.494 125.243 116.417H125.414C125.776 115.508 126.387 114.783 127.246 114.244C128.113 113.697 129.139 113.423 130.325 113.423C131.831 113.423 133.059 113.899 134.011 114.851C134.963 115.803 135.439 117.191 135.439 119.016V130H131.571V119.613C131.571 118.597 131.302 117.855 130.762 117.386C130.222 116.91 129.561 116.673 128.78 116.673C127.85 116.673 127.122 116.964 126.596 117.546C126.078 118.121 125.819 118.871 125.819 119.794V130H122.037V119.453C122.037 118.608 121.781 117.933 121.27 117.429C120.765 116.925 120.105 116.673 119.288 116.673C118.734 116.673 118.23 116.815 117.775 117.099C117.321 117.376 116.958 117.77 116.689 118.281C116.419 118.785 116.284 119.375 116.284 120.05V130H112.427ZM146.595 130.32C144.955 130.32 143.538 129.979 142.345 129.297C141.159 128.608 140.246 127.635 139.607 126.378C138.968 125.114 138.648 123.626 138.648 121.914C138.648 120.231 138.968 118.754 139.607 117.482C140.253 116.204 141.155 115.209 142.313 114.499C143.47 113.782 144.83 113.423 146.393 113.423C147.401 113.423 148.353 113.587 149.248 113.913C150.15 114.233 150.946 114.73 151.634 115.405C152.33 116.08 152.877 116.939 153.275 117.983C153.673 119.02 153.872 120.256 153.872 121.69V122.873H140.459V120.273H150.175C150.168 119.535 150.008 118.878 149.696 118.303C149.383 117.72 148.946 117.262 148.385 116.928C147.831 116.594 147.185 116.428 146.446 116.428C145.658 116.428 144.965 116.619 144.369 117.003C143.772 117.379 143.307 117.876 142.973 118.494C142.647 119.105 142.48 119.776 142.473 120.508V122.777C142.473 123.729 142.647 124.545 142.995 125.227C143.343 125.902 143.829 126.42 144.454 126.783C145.079 127.138 145.811 127.315 146.649 127.315C147.21 127.315 147.718 127.237 148.172 127.081C148.627 126.918 149.021 126.68 149.355 126.367C149.688 126.055 149.941 125.668 150.111 125.206L153.712 125.611C153.485 126.562 153.051 127.393 152.412 128.104C151.78 128.807 150.97 129.354 149.983 129.744C148.996 130.128 147.867 130.32 146.595 130.32ZM144.124 106.925L146.286 109.652L148.449 106.925H151.826V107.074L147.799 111.676H144.784L140.747 107.074V106.925H144.124ZM157.134 136.136V113.636H160.927V116.342H161.151C161.349 115.945 161.63 115.522 161.992 115.075C162.354 114.62 162.844 114.233 163.462 113.913C164.08 113.587 164.869 113.423 165.827 113.423C167.092 113.423 168.232 113.746 169.247 114.393C170.27 115.032 171.08 115.98 171.676 117.237C172.28 118.487 172.582 120.021 172.582 121.839C172.582 123.636 172.287 125.163 171.697 126.42C171.108 127.678 170.305 128.636 169.29 129.297C168.274 129.957 167.124 130.288 165.838 130.288C164.901 130.288 164.123 130.131 163.505 129.819C162.887 129.506 162.39 129.13 162.014 128.69C161.644 128.242 161.357 127.82 161.151 127.422H160.991V136.136H157.134ZM160.916 121.818C160.916 122.876 161.065 123.803 161.364 124.599C161.669 125.394 162.106 126.016 162.674 126.463C163.249 126.903 163.945 127.124 164.762 127.124C165.614 127.124 166.328 126.896 166.903 126.442C167.479 125.98 167.912 125.352 168.203 124.556C168.501 123.754 168.651 122.841 168.651 121.818C168.651 120.803 168.505 119.901 168.214 119.112C167.923 118.324 167.489 117.706 166.914 117.258C166.339 116.811 165.621 116.587 164.762 116.587C163.938 116.587 163.239 116.804 162.663 117.237C162.088 117.67 161.651 118.278 161.353 119.059C161.062 119.84 160.916 120.76 160.916 121.818ZM175.884 130V113.636H179.741V130H175.884ZM177.823 111.314C177.212 111.314 176.687 111.111 176.246 110.707C175.806 110.295 175.586 109.801 175.586 109.226C175.586 108.643 175.806 108.15 176.246 107.745C176.687 107.333 177.212 107.127 177.823 107.127C178.441 107.127 178.967 107.333 179.4 107.745C179.84 108.15 180.06 108.643 180.06 109.226C180.06 109.801 179.84 110.295 179.4 110.707C178.967 111.111 178.441 111.314 177.823 111.314ZM196.64 117.962L193.124 118.345C193.025 117.99 192.851 117.656 192.602 117.344C192.361 117.031 192.034 116.779 191.622 116.587C191.21 116.396 190.706 116.3 190.109 116.3C189.307 116.3 188.632 116.474 188.085 116.822C187.545 117.17 187.279 117.621 187.286 118.175C187.279 118.651 187.453 119.038 187.808 119.336C188.17 119.634 188.767 119.879 189.598 120.071L192.389 120.668C193.937 121.001 195.088 121.531 195.841 122.255C196.601 122.979 196.984 123.928 196.991 125.099C196.984 126.129 196.682 127.038 196.086 127.827C195.496 128.608 194.676 129.219 193.625 129.659C192.574 130.099 191.366 130.32 190.003 130.32C188 130.32 186.388 129.901 185.166 129.062C183.944 128.217 183.216 127.042 182.982 125.536L186.743 125.174C186.913 125.913 187.275 126.47 187.829 126.847C188.383 127.223 189.104 127.411 189.992 127.411C190.908 127.411 191.643 127.223 192.197 126.847C192.758 126.47 193.039 126.005 193.039 125.451C193.039 124.982 192.858 124.595 192.496 124.29C192.14 123.984 191.586 123.75 190.834 123.587L188.042 123.001C186.473 122.674 185.312 122.124 184.559 121.349C183.806 120.568 183.433 119.581 183.44 118.388C183.433 117.379 183.707 116.506 184.261 115.767C184.822 115.021 185.599 114.446 186.594 114.041C187.595 113.629 188.749 113.423 190.056 113.423C191.974 113.423 193.483 113.832 194.584 114.648C195.692 115.465 196.377 116.57 196.64 117.962ZM204.028 120.412V130H200.171V113.636H203.857V116.417H204.049C204.426 115.501 205.026 114.773 205.85 114.233C206.681 113.693 207.707 113.423 208.928 113.423C210.058 113.423 211.041 113.665 211.879 114.148C212.725 114.631 213.378 115.33 213.84 116.246C214.308 117.163 214.539 118.274 214.532 119.581V130H210.676V120.178C210.676 119.084 210.392 118.228 209.823 117.61C209.262 116.992 208.485 116.683 207.49 116.683C206.816 116.683 206.215 116.832 205.69 117.131C205.171 117.422 204.763 117.844 204.465 118.398C204.173 118.952 204.028 119.624 204.028 120.412ZM225.697 130.32C224.056 130.32 222.639 129.979 221.446 129.297C220.26 128.608 219.348 127.635 218.708 126.378C218.069 125.114 217.749 123.626 217.749 121.914C217.749 120.231 218.069 118.754 218.708 117.482C219.355 116.204 220.257 115.209 221.414 114.499C222.572 113.782 223.932 113.423 225.495 113.423C226.503 113.423 227.455 113.587 228.35 113.913C229.252 114.233 230.047 114.73 230.736 115.405C231.432 116.08 231.979 116.939 232.377 117.983C232.774 119.02 232.973 120.256 232.973 121.69V122.873H219.561V120.273H229.276C229.269 119.535 229.11 118.878 228.797 118.303C228.485 117.72 228.048 117.262 227.487 116.928C226.933 116.594 226.286 116.428 225.548 116.428C224.759 116.428 224.067 116.619 223.47 117.003C222.874 117.379 222.409 117.876 222.075 118.494C221.748 119.105 221.581 119.776 221.574 120.508V122.777C221.574 123.729 221.748 124.545 222.096 125.227C222.444 125.902 222.931 126.42 223.556 126.783C224.181 127.138 224.912 127.315 225.75 127.315C226.311 127.315 226.819 127.237 227.274 127.081C227.728 126.918 228.122 126.68 228.456 126.367C228.79 126.055 229.042 125.668 229.213 125.206L232.813 125.611C232.586 126.562 232.153 127.393 231.514 128.104C230.882 128.807 230.072 129.354 229.085 129.744C228.098 130.128 226.968 130.32 225.697 130.32ZM223.907 111.484L226.294 106.616H230.065L226.794 111.484H223.907ZM104.839 172.136V149.636H108.632V152.342H108.856C109.055 151.945 109.335 151.522 109.697 151.075C110.06 150.62 110.55 150.233 111.167 149.913C111.785 149.587 112.574 149.423 113.533 149.423C114.797 149.423 115.937 149.746 116.952 150.393C117.975 151.032 118.785 151.98 119.381 153.237C119.985 154.487 120.287 156.021 120.287 157.839C120.287 159.636 119.992 161.163 119.403 162.42C118.813 163.678 118.011 164.636 116.995 165.297C115.979 165.957 114.829 166.288 113.543 166.288C112.606 166.288 111.828 166.131 111.21 165.819C110.592 165.506 110.095 165.13 109.719 164.69C109.349 164.242 109.062 163.82 108.856 163.422H108.696V172.136H104.839ZM108.621 157.818C108.621 158.876 108.77 159.803 109.069 160.599C109.374 161.394 109.811 162.016 110.379 162.463C110.954 162.903 111.65 163.124 112.467 163.124C113.319 163.124 114.033 162.896 114.609 162.442C115.184 161.98 115.617 161.352 115.908 160.556C116.207 159.754 116.356 158.841 116.356 157.818C116.356 156.803 116.21 155.901 115.919 155.112C115.628 154.324 115.194 153.706 114.619 153.258C114.044 152.811 113.327 152.587 112.467 152.587C111.643 152.587 110.944 152.804 110.368 153.237C109.793 153.67 109.356 154.278 109.058 155.059C108.767 155.84 108.621 156.76 108.621 157.818ZM130.834 166.32C129.193 166.32 127.776 165.979 126.583 165.297C125.397 164.608 124.484 163.635 123.845 162.378C123.206 161.114 122.886 159.626 122.886 157.914C122.886 156.231 123.206 154.754 123.845 153.482C124.491 152.204 125.393 151.209 126.551 150.499C127.709 149.782 129.069 149.423 130.631 149.423C131.64 149.423 132.591 149.587 133.486 149.913C134.388 150.233 135.184 150.73 135.873 151.405C136.569 152.08 137.116 152.939 137.513 153.983C137.911 155.02 138.11 156.256 138.11 157.69V158.873H124.697V156.273H134.413C134.406 155.535 134.246 154.878 133.934 154.303C133.621 153.72 133.185 153.262 132.623 152.928C132.069 152.594 131.423 152.428 130.685 152.428C129.896 152.428 129.204 152.619 128.607 153.003C128.011 153.379 127.545 153.876 127.211 154.494C126.885 155.105 126.718 155.776 126.711 156.508V158.777C126.711 159.729 126.885 160.545 127.233 161.227C127.581 161.902 128.067 162.42 128.692 162.783C129.317 163.138 130.049 163.315 130.887 163.315C131.448 163.315 131.956 163.237 132.41 163.081C132.865 162.918 133.259 162.68 133.593 162.367C133.927 162.055 134.179 161.668 134.349 161.206L137.95 161.611C137.723 162.562 137.29 163.393 136.65 164.104C136.018 164.807 135.209 165.354 134.221 165.744C133.234 166.128 132.105 166.32 130.834 166.32ZM144.174 149.636L147.477 155.677L150.833 149.636H154.913L149.98 157.818L154.998 166H150.939L147.477 160.109L144.047 166H139.956L144.941 157.818L140.083 149.636H144.174ZM164.525 166.32C162.884 166.32 161.468 165.979 160.274 165.297C159.088 164.608 158.176 163.635 157.536 162.378C156.897 161.114 156.578 159.626 156.578 157.914C156.578 156.231 156.897 154.754 157.536 153.482C158.183 152.204 159.085 151.209 160.242 150.499C161.4 149.782 162.76 149.423 164.323 149.423C165.331 149.423 166.283 149.587 167.178 149.913C168.08 150.233 168.875 150.73 169.564 151.405C170.26 152.08 170.807 152.939 171.205 153.983C171.602 155.02 171.801 156.256 171.801 157.69V158.873H158.389V156.273H168.105C168.098 155.535 167.938 154.878 167.625 154.303C167.313 153.72 166.876 153.262 166.315 152.928C165.761 152.594 165.115 152.428 164.376 152.428C163.588 152.428 162.895 152.619 162.298 153.003C161.702 153.379 161.237 153.876 160.903 154.494C160.576 155.105 160.409 155.776 160.402 156.508V158.777C160.402 159.729 160.576 160.545 160.924 161.227C161.272 161.902 161.759 162.42 162.384 162.783C163.009 163.138 163.74 163.315 164.578 163.315C165.139 163.315 165.647 163.237 166.102 163.081C166.556 162.918 166.95 162.68 167.284 162.367C167.618 162.055 167.87 161.668 168.041 161.206L171.642 161.611C171.414 162.562 170.981 163.393 170.342 164.104C169.71 164.807 168.9 165.354 167.913 165.744C166.926 166.128 165.796 166.32 164.525 166.32ZM187.997 153.962L184.482 154.345C184.382 153.99 184.208 153.656 183.96 153.344C183.718 153.031 183.391 152.779 182.979 152.587C182.567 152.396 182.063 152.3 181.467 152.3C180.664 152.3 179.989 152.474 179.442 152.822C178.903 153.17 178.636 153.621 178.643 154.175C178.636 154.651 178.81 155.038 179.166 155.336C179.528 155.634 180.124 155.879 180.955 156.071L183.746 156.668C185.295 157.001 186.445 157.531 187.198 158.255C187.958 158.979 188.342 159.928 188.349 161.099C188.342 162.129 188.04 163.038 187.443 163.827C186.854 164.608 186.033 165.219 184.982 165.659C183.931 166.099 182.724 166.32 181.36 166.32C179.357 166.32 177.745 165.901 176.523 165.062C175.302 164.217 174.574 163.042 174.34 161.536L178.1 161.174C178.271 161.913 178.633 162.47 179.187 162.847C179.741 163.223 180.462 163.411 181.349 163.411C182.266 163.411 183.001 163.223 183.555 162.847C184.116 162.47 184.396 162.005 184.396 161.451C184.396 160.982 184.215 160.595 183.853 160.29C183.498 159.984 182.944 159.75 182.191 159.587L179.4 159.001C177.83 158.674 176.669 158.124 175.916 157.349C175.163 156.568 174.791 155.581 174.798 154.388C174.791 153.379 175.064 152.506 175.618 151.767C176.179 151.021 176.957 150.446 177.951 150.041C178.952 149.629 180.107 149.423 181.413 149.423C183.331 149.423 184.84 149.832 185.941 150.648C187.049 151.465 187.734 152.57 187.997 153.962ZM198.667 166.32C197.069 166.32 195.684 165.968 194.512 165.265C193.34 164.562 192.431 163.578 191.784 162.314C191.145 161.05 190.826 159.572 190.826 157.882C190.826 156.192 191.145 154.711 191.784 153.44C192.431 152.168 193.34 151.181 194.512 150.478C195.684 149.775 197.069 149.423 198.667 149.423C200.265 149.423 201.65 149.775 202.821 150.478C203.993 151.181 204.899 152.168 205.538 153.44C206.184 154.711 206.507 156.192 206.507 157.882C206.507 159.572 206.184 161.05 205.538 162.314C204.899 163.578 203.993 164.562 202.821 165.265C201.65 165.968 200.265 166.32 198.667 166.32ZM198.688 163.23C199.554 163.23 200.279 162.992 200.861 162.516C201.444 162.033 201.877 161.387 202.161 160.577C202.452 159.768 202.598 158.866 202.598 157.871C202.598 156.87 202.452 155.964 202.161 155.155C201.877 154.338 201.444 153.688 200.861 153.205C200.279 152.722 199.554 152.481 198.688 152.481C197.8 152.481 197.061 152.722 196.472 153.205C195.89 153.688 195.453 154.338 195.162 155.155C194.878 155.964 194.735 156.87 194.735 157.871C194.735 158.866 194.878 159.768 195.162 160.577C195.453 161.387 195.89 162.033 196.472 162.516C197.061 162.992 197.8 163.23 198.688 163.23Z" fill="white"/>
</svg>
